<?xml version="1.0" encoding="UTF-8"?>
<svg width="513" height="486" viewBox="0 0 513 486" xmlns="http://www.w3.org/2000/svg">
  <path id="1" d="M 14.613,406 C 35.585,366.559 47.235,349.481 66.534,329.892 C 71.740,324.608 76,319.591 76,318.743 C 76,317.895 73.341,314.267 70.091,310.681 C 32.366,269.053 20.603,211.847 39.003,159.500 C 42.790,148.726 51.222,132.399 58.244,122.241 C 64.460,113.249 78.858,97.877 87.518,90.986 C 106.044,76.244 132.160,64.693 155.500,60.917 C 167.012,59.055 195.350,59.284 206.724,61.331 C 251.026,69.304 293.330,100.137 312.955,138.756 C 314.700,142.190 316.212,145 316.314,144.999 C 316.416,144.998 320.314,144.326 324.976,143.506 C 329.638,142.686 342.913,141.324 354.476,140.480 C 399.317,137.209 418.327,131.859 442.477,115.714 C 453.259,108.506 455.962,106.278 466.817,95.646 C 469.589,92.931 472.363,90.215 475.135,87.500 C 480.322,87.393 485.508,87.285 490.695,87.178 C 499.253,87.001 506.630,87.230 507.087,87.687 C 507.909,88.509 503.578,97.635 491.756,120 C 472.721,156.010 451.884,182.700 423.053,208 C 414.702,215.329 411.075,219.166 411.044,220.706 C 411.010,222.399 412.620,223.858 417.959,226.976 C 445.143,242.852 463.936,270.145 468.586,300.500 C 476.074,349.384 449.428,395.183 403.739,411.960 C 395.457,415.001 387.111,416.853 379,417.448 C 368.054,418.251 180,419.079 180,418.324 C 180,417.973 181.724,415.393 183.830,412.592 C 185.936,409.791 191.656,402.100 196.540,395.500 C 201.424,388.900 208.156,380.125 211.498,376 C 229.770,353.449 231.170,350.005 220,355.094 C 204.687,362.071 187.939,365.291 155.500,367.493 C 125.386,369.538 109.197,373.389 89.759,383.133 C 74.714,390.675 65.074,397.650 52.182,410.323 C 49.409,413.049 46.638,415.774 43.865,418.500 C 38.054,418.605 32.243,418.709 26.432,418.814 C 12.532,419.065 9.003,418.862 9.015,417.814 C 9.023,417.091 11.542,411.775 14.613,406 ZM 158,299 C 156.583,298.455 155.167,297.909 153.750,297.364 C 137.416,291.075 120.933,280.321 112.288,270.316 C 101.428,257.746 92.656,239.072 90.064,223 C 87.856,209.313 89.535,191.882 94.335,178.658 C 98.110,168.257 106.770,153.602 112.882,147.272 C 124.471,135.268 138.053,126.722 154,121.397 C 161.981,118.732 163.508,118.560 179,118.580 C 198.216,118.605 203.677,119.774 223,128 C 225.284,129.499 227.569,130.998 229.853,132.497 C 243.136,141.215 254.863,153.777 260.898,165.750 C 262.076,168.087 263.652,170 264.400,170 C 265.148,170 268.401,167.945 271.630,165.433 C 274.859,162.921 282.648,158.280 288.940,155.119 C 292.753,153.203 296.567,151.288 300.380,149.372 C 299.131,147.139 297.883,144.906 296.634,142.673 C 290.673,132.014 281.953,121.240 271,111 C 267,107.667 263,104.333 259,101 C 256.250,99.187 253.500,97.374 250.750,95.561 C 246.212,92.569 241.262,89.644 237,88 C 232.917,86.510 228.833,85.020 224.750,83.530 C 208.574,77.628 197.083,75.635 179.500,75.678 C 164.746,75.714 151.863,77.543 142,81 C 141.750,80.988 141.500,80.976 141.250,80.964 C 139.079,80.859 120.621,88.723 113,93 C 111.417,93.939 109.833,94.879 108.250,95.818 C 98.452,101.630 81.126,117.198 75.772,125 C 64.958,140.759 62.112,145.654 56,159 C 55.170,161.381 54.341,163.762 53.511,166.143 C 48.856,179.502 47.838,188.075 47,221 C 47.176,222.083 47.351,223.167 47.527,224.250 C 47.817,226.038 48.539,230.857 49.133,234.959 C 50.391,243.649 55.706,259.522 60.508,268.924 C 62.355,272.541 65.472,277.638 71,285 C 72.159,286.928 73.319,288.855 74.478,290.783 C 76.391,293.963 79.541,298.013 85,303 C 86.172,304.176 87.345,305.353 88.517,306.529 C 94.259,312.291 96.100,312.718 101.517,309.543 C 109.265,305.002 128.231,301 142,301 C 146.667,301 151.333,301 156,301 C 156.667,301.667 157.333,302.333 158,303 C 156.083,303.190 154.167,303.379 152.250,303.569 C 143.467,304.438 126.457,308.911 117.141,312.801 C 92.104,323.257 65.080,349.371 47.086,380.500 C 44.225,385.450 40.128,392.425 37.982,396 C 35.836,399.575 34.522,402.653 35.060,402.840 C 35.598,403.027 38.766,400.655 42.099,397.569 C 54.972,385.651 69.300,375.443 82.649,368.678 C 90.553,364.673 113.860,357.112 124.899,354.972 C 130.349,353.915 141.264,352.572 149.154,351.987 C 180.796,349.640 187.077,348.916 196.457,346.536 C 211.159,342.806 227.034,334.651 239,324.682 C 246.333,318.572 259.315,303.160 264,295 C 264.963,293.493 265.926,291.986 266.889,290.479 C 268.478,287.992 272.127,280.680 274.996,274.229 C 288.415,244.061 291.176,238.731 298.307,229.237 C 305.677,219.424 321.647,209.540 334,207.144 C 337.025,206.557 343.775,205.808 349,205.479 C 365.187,204.459 372.738,203.097 396,197 C 396,198.667 396,200.333 396,202 C 394.778,203.833 393.556,205.667 392.334,207.500 C 390.317,210.525 388.941,213.275 389.277,213.611 C 390.134,214.468 403.148,203.662 418.483,189.359 C 439.606,169.658 446.169,161.939 463,137 C 463,136.667 463,136.333 463,136 C 464.667,133.667 466.333,131.333 468,129 C 468,128.667 468,128.333 468,128 C 468.333,127.667 468.667,127.333 469,127 C 469.333,126 469.667,125 470,124 C 470.333,123.667 470.667,123.333 471,123 C 471,122.667 471,122.333 471,122 C 471.333,121.667 471.667,121.333 472,121 C 472.667,119.667 473.333,118.333 474,117 C 474.863,115.673 475.727,114.347 476.590,113.020 C 481.070,106.135 478.731,106.634 472,114 C 471.333,114.333 470.667,114.667 470,115 C 469.667,115.333 469.333,115.667 469,116 C 468,117 467,118 466,119 C 465.333,119.667 464.667,120.333 464,121 C 463,121.667 462,122.333 461,123 C 460.333,123.667 459.667,124.333 459,125 C 458.333,125.333 457.667,125.667 457,126 C 456.333,126.667 455.667,127.333 455,128 C 454.667,128 454.333,128 454,128 C 451.333,130 448.667,132 446,134 C 445.667,134 445.333,134 445,134 C 443.667,135 442.333,136 441,137 C 440.333,137.333 439.667,137.667 439,138 C 438.667,138.333 438.333,138.667 438,139 C 437.667,139 437.333,139 437,139 C 436.667,139.333 436.333,139.667 436,140 C 435.667,140 435.333,140 435,140 C 434.667,140.333 434.333,140.667 434,141 C 433.667,141 433.333,141 433,141 C 432.667,141.333 432.333,141.667 432,142 C 431.333,142 430.667,142 430,142 C 429.667,142.333 429.333,142.667 429,143 C 428.333,143 427.667,143 427,143 C 426.667,143.333 426.333,143.667 426,144 C 425.667,144 425.333,144 425,144 C 424.667,144.333 424.333,144.667 424,145 C 423.333,145 422.667,145 422,145 C 421.667,145.333 421.333,145.667 421,146 C 420.667,146 420.333,146 420,146 C 419.667,146.333 419.333,146.667 419,147 C 418.333,147 417.667,147 417,147 C 416.667,147.333 416.333,147.667 416,148 C 415.333,148 414.667,148 414,148 C 413.667,148.333 413.333,148.667 413,149 C 412.667,149 412.333,149 412,149 C 411.333,149.333 410.667,149.667 410,150 C 406.083,150.669 402.167,151.337 398.250,152.006 C 391.788,153.109 385.150,154.227 383.500,154.490 C 381.850,154.753 370.825,155.683 359,156.556 C 330.531,158.658 322.664,160.346 301,169 C 300.667,169.333 300.333,169.667 300,170 C 299.750,169.999 299.500,169.997 299.250,169.996 C 298.837,169.994 295.688,171.794 286,178 C 285.667,178.333 285.333,178.667 285,179 C 284.333,179.333 283.667,179.667 283,180 C 282.667,180.333 282.333,180.667 282,181 C 280.667,182 279.333,183 278,184 C 277.333,184.667 276.667,185.333 276,186 C 274.667,187.333 273.333,188.667 272,190 C 270.333,191.667 268.667,193.333 267,195 C 265,197.333 263,199.667 261,202 C 260.667,202.333 260.333,202.667 260,203 C 259.333,204 258.667,205 258,206 C 257.667,206.333 257.333,206.667 257,207 C 256,208.667 255,210.333 254,212 C 253.667,212.333 253.333,212.667 253,213 C 252,215 251,217 250,219 C 249.667,219.333 249.333,219.667 249,220 C 249,220.333 249,220.667 249,221 C 248.667,221.333 248.333,221.667 248,222 C 248,222.333 248,222.667 248,223 C 247.667,223.333 247.333,223.667 247,224 C 246.333,225.667 245.667,227.333 245,229 C 244.667,229.333 244.333,229.667 244,230 C 244,230.333 244,230.667 244,231 C 243.667,231.333 243.333,231.667 243,232 C 241.333,236.333 239.667,240.667 238,245 C 237.667,245.333 237.333,245.667 237,246 C 235.619,249.083 234.239,252.167 232.858,255.250 C 227.923,266.271 224.078,272.461 215,284 C 213.583,285.157 212.167,286.315 210.750,287.472 C 208.413,289.381 203.238,292.531 192,298 C 190.461,298.509 188.923,299.018 187.384,299.527 C 184.845,300.367 180.121,301.268 171,302 C 166.667,301 162.333,300 158,299 ZM 154,160 C 151.083,161.711 148.167,163.423 145.250,165.134 C 140.438,167.958 133.913,172.008 125,178 C 125,183.333 125,188.667 125,194 C 125.083,202.083 125.167,210.167 125.250,218.250 C 125.333,226.333 125.417,234.417 125.500,242.500 C 127.833,243.936 130.167,245.372 132.500,246.808 C 136.350,249.177 144.225,253.812 150,257.109 C 155.775,260.406 165,265.757 170.500,269 C 173.833,270.966 177.167,272.930 180.500,274.896 C 181.667,274.197 182.833,273.500 184,272.801 C 185.925,271.648 193.350,267.331 200.500,263.208 C 207.650,259.085 214.207,254.989 215.071,254.106 C 217.366,251.760 224.240,235.486 223.832,233.365 C 223.640,232.369 221.691,230.549 219.501,229.320 C 218.174,228.575 216.846,227.832 215.519,227.087 C 214.683,227.851 213.845,228.615 213.009,229.379 C 211.629,230.640 203.750,235.862 195.500,240.984 C 190.500,244.088 185.500,247.193 180.500,250.297 C 174.833,246.816 169.167,243.335 163.500,239.854 C 157.833,236.373 152.167,232.893 146.500,229.412 C 146.333,222.608 146.167,215.804 146,209 C 146.083,205.624 146.167,202.248 146.250,198.872 C 146.333,195.496 146.417,192.120 146.500,188.744 C 154.667,183.496 162.833,178.248 171,173 C 172.503,172.250 174.007,171.500 175.510,170.750 C 177.013,170 178.516,169.250 180.019,168.500 C 181.532,169.333 183.046,170.167 184.559,171 C 187.056,172.375 194.921,177.041 202.038,181.368 C 206.351,183.991 210.665,186.612 214.978,189.235 C 218.148,187.317 221.319,185.399 224.489,183.481 C 229.720,180.316 234,177.405 234,177.013 C 234,176.621 230.288,174.178 225.750,171.585 C 221.212,168.992 209.118,161.700 198.874,155.381 C 192.665,151.551 186.457,147.722 180.248,143.892 C 177.250,145.710 174.251,147.529 171.253,149.347 C 166.306,152.347 160.400,155.971 154,160 ZM 164,195 C 162.667,195.667 161.333,196.333 160,197 C 160,202 160,207 160,212 C 160,213.682 160,215.365 160,217.047 C 160,221.659 160.268,222.240 163.103,223.797 C 164.809,224.734 169.060,227.188 172.548,229.250 C 176.036,231.312 179.477,232.992 180.195,232.983 C 183.017,232.947 196.694,223.981 200,220 C 200.167,216.417 200.335,212.833 200.502,209.250 C 200.805,202.773 200.606,198.003 199,196 C 195.875,194.159 192.750,192.318 189.625,190.477 C 186.500,188.636 183.375,186.796 180.250,184.955 C 174.833,188.303 169.417,191.652 164,195 ZM 214,401 C 213.667,401 213.333,401 213,401 C 213,401.250 213,401.500 213,401.750 C 213,402.163 247.875,402.388 368,402 C 370.583,401.844 373.167,401.687 375.750,401.531 C 384.737,400.987 392.298,399.149 402.736,394.969 C 413.187,390.784 420.220,385.921 429.711,376.319 C 436.728,369.219 438.727,366.376 443.462,356.756 C 446.798,349.979 449.598,342.615 452,331 C 452.160,331 452.321,331 452.481,331 C 452.746,331 452.971,326.725 453,312 C 452.998,310.750 452.995,309.500 452.993,308.250 C 452.984,303.535 449.777,290.021 447,283 C 446.667,282.667 446.333,282.333 446,282 C 446,281.667 446,281.333 446,281 C 445.667,280.667 445.333,280.333 445,280 C 444.667,279 444.333,278 444,277 C 443.667,276.667 443.333,276.333 443,276 C 442.333,274.667 441.667,273.333 441,272 C 440.046,270.385 439.092,268.771 438.138,267.156 C 436.564,264.492 433.570,260.423 431.485,258.115 C 426.787,252.914 413.390,242.737 406.938,239.468 C 400.119,236.012 385.645,232 380,232 C 380,231.750 380,231.500 380,231.250 C 380,230.837 368.638,230.500 354.750,230.500 C 346.333,230.500 337.917,230.500 329.500,230.500 C 327.566,231.406 325.631,232.313 323.697,233.219 C 320.505,234.714 316.568,237.077 312,241 C 310.349,242.881 308.697,244.762 307.046,246.643 C 304.321,249.747 301.438,253.684 300.639,255.393 C 294.964,267.526 292,274.277 292,275.073 C 292,275.627 307.908,276 371,276 C 373.192,276.493 375.384,276.986 377.576,277.479 C 390.935,280.484 397.384,285.821 406,301 C 406.333,302 406.667,303 407,304 C 407.333,306.667 407.667,309.333 408,312 C 407.998,313.917 407.996,315.833 407.994,317.750 C 407.986,325.950 406.611,330.122 400,342 C 396.667,345 393.333,348 390,351 C 388.288,351.695 386.576,352.391 384.864,353.086 C 382.039,354.233 377.314,355.359 369,356 C 334.667,356.333 300.333,356.667 266,357 C 264.670,357.170 263.340,357.340 262.010,357.510 C 255.910,358.290 247.687,361.695 242.693,365.508 C 237.179,369.718 221.456,389.167 214,401 ZM 314,299 C 301.667,299.333 289.333,299.667 277,300 C 278.692,302.250 280.384,304.500 282.076,306.750 C 288.835,315.738 290.174,318.405 291.489,325.500 C 291.860,327.500 292.230,329.500 292.601,331.500 C 311.734,331.667 330.867,331.833 350,332 C 353.310,331.917 356.620,331.833 359.930,331.750 C 371.518,331.458 374.578,329.930 376.937,323.254 C 378.800,317.983 377.447,313.229 372.272,306.849 C 368.121,301.732 363.502,299 359,299 C 352,299 345,299 338,299 C 330,299 322,299 314,299 Z" fill="#170D3F" stroke="none" />
  <path id="31" d="M 264,295 C 259.315,303.160 246.333,318.572 239,324.682 C 227.034,334.651 211.159,342.806 196.457,346.536 C 187.077,348.916 180.796,349.640 149.154,351.987 C 141.264,352.572 130.349,353.915 124.899,354.972 C 113.860,357.112 90.553,364.673 82.649,368.678 C 69.300,375.443 54.972,385.651 42.099,397.569 C 38.766,400.655 35.598,403.027 35.060,402.840 C 34.522,402.653 35.836,399.575 37.982,396 C 40.128,392.425 44.225,385.450 47.086,380.500 C 65.080,349.371 92.104,323.257 117.141,312.801 C 126.457,308.911 143.467,304.438 152.250,303.569 C 154.167,303.379 156.083,303.190 158,303 C 160.333,303 162.667,303 165,303 C 157.677,303.874 155.089,304.489 154.525,304.931 C 153.961,305.373 151.025,306.046 148,306.427 C 138.710,307.597 119.627,313.177 118.461,315.064 C 118.163,315.546 119.794,315.278 122.085,314.470 C 124.376,313.662 127.433,312.999 128.876,312.997 C 130.319,312.995 136.225,312.062 142,310.922 C 148.926,309.555 158.044,308.695 168.786,308.397 C 182.468,308.017 186.305,307.554 192.786,305.498 C 202.178,302.519 211.199,297.318 219.666,290 C 224.283,286.009 225.595,285.234 224.447,287.178 C 223.919,288.071 223.392,288.964 222.864,289.857 C 224.411,290.089 225.958,290.321 227.505,290.553 C 231.906,291.213 232.296,291.075 235.033,287.875 C 238.803,283.467 238.788,285.364 235.004,291.579 C 234.005,293.219 233.007,294.860 232.008,296.500 C 233.499,295.167 234.991,293.833 236.482,292.500 C 238.943,290.300 242.766,285.913 244.978,282.750 C 246.319,280.833 247.659,278.917 249,277 C 251.333,272.333 253.667,267.667 256,263 C 258.299,261.297 267.526,244.809 272.944,232.722 C 273.738,230.950 274.976,228.938 275.694,228.250 C 276.129,227.833 276.565,227.417 277,227 C 277.521,227.164 278.042,227.329 278.563,227.493 C 279.423,227.764 279.903,228.348 279.629,228.791 C 279.355,229.234 279.528,230.237 280.012,231.020 C 280.745,232.207 281.003,232.155 281.558,230.709 C 281.924,229.755 281.693,228.335 281.045,227.554 C 280.134,226.456 280.177,225.540 281.237,223.517 C 282.464,221.174 282.897,221.011 285.373,221.952 C 287.481,222.754 288.003,223.478 287,227 C 284.250,229.557 274.313,252.102 272.455,260 C 269.474,272.674 264.069,287.113 259.171,295.488 C 257.614,298.151 256.057,300.812 254.500,303.475 C 256.083,302.062 257.667,300.651 259.250,299.238 C 260.833,297.825 262.417,296.413 264,295 ZM 246.712,302.258 C 244.396,304.875 241.825,307.027 241,307.040 C 240.175,307.053 238.627,307.725 237.559,308.532 C 235.161,310.346 230.612,310.441 229.173,308.708 C 228.358,307.726 229.301,306.382 233.101,303.109 C 235.851,300.740 237.951,298.353 237.768,297.803 C 237.585,297.253 235.199,298.782 232.467,301.200 C 226.588,306.403 213.496,314.838 206.593,317.871 C 196.185,322.444 183.611,324.445 158,325.609 C 153.833,325.798 149.667,325.988 145.500,326.177 C 143.917,325.155 142.333,324.133 140.750,323.111 C 133.999,318.753 134.379,317.660 143.464,315.320 C 145.143,314.888 146.821,314.454 148.500,314.022 C 146.500,314.218 144.500,314.415 142.500,314.611 C 135.145,315.332 122.541,319.215 114.500,323.236 C 102.287,329.344 84.665,343.618 77.321,353.352 C 74.770,356.733 71.323,360.956 69.660,362.735 C 67.997,364.514 66.929,366.262 67.285,366.618 C 67.641,366.974 70.535,366.018 73.716,364.492 C 92.615,355.427 103.486,351.590 118.500,348.683 C 128.026,346.839 131.683,346.433 156.500,344.472 C 181.447,342.501 188.592,341.208 204.500,335.785 C 212.256,333.141 214.968,331.738 223.736,325.832 C 232.424,319.980 242.697,310.542 247.497,304.004 C 252.293,297.471 251.840,296.465 246.712,302.258 Z" fill="#7171DE" stroke="none" />
  <path id="9" d="M 223,128 C 203.677,119.774 198.216,118.605 179,118.580 C 163.508,118.560 161.981,118.732 154,121.397 C 138.053,126.722 124.471,135.268 112.882,147.272 C 106.770,153.602 98.110,168.257 94.335,178.658 C 89.535,191.882 87.856,209.313 90.064,223 C 92.656,239.072 101.428,257.746 112.288,270.316 C 120.933,280.321 137.416,291.075 153.750,297.364 C 155.167,297.909 156.583,298.455 158,299 C 157.333,299.667 156.667,300.333 156,301 C 151.333,301 146.667,301 142,301 C 142,300.773 142,300.547 142,300.320 C 142,299.946 139.885,298.726 137.301,297.607 C 124.997,292.281 109.949,280.280 101.129,268.761 C 93.500,258.798 90.315,253.077 84,238 C 83.330,235.750 82.661,233.500 81.991,231.250 C 80.389,225.867 80.006,221.868 80.101,211.500 C 80.297,190.172 80.392,190.847 76.744,187.721 C 74.960,186.192 73.012,183.492 72.416,181.721 C 71.820,179.950 70.264,177.962 68.958,177.304 C 67.652,176.646 66.242,175.184 65.824,174.054 C 65.406,172.924 64.198,172 63.140,172 C 61.587,172 60.909,173.304 59.630,178.750 C 56.637,191.494 56.140,197.553 56,223 C 56.005,224.250 56.011,225.500 56.016,226.750 C 56.063,237.960 64.074,262.646 72,276 C 71.463,275.583 70.927,275.167 70.390,274.750 C 69.505,274.062 67.490,270.945 65.913,267.823 C 62.417,260.903 60.466,259.263 61.514,264.125 C 62.436,268.402 64.290,272.138 68.773,278.750 C 70.731,281.638 72.033,284.225 71,285 C 65.472,277.638 62.355,272.541 60.508,268.924 C 55.706,259.522 50.391,243.649 49.133,234.959 C 48.539,230.857 47.817,226.038 47.527,224.250 C 47.351,223.167 47.176,222.083 47,221 C 48.550,220.134 49.056,215.521 49.124,210.191 C 49.259,199.653 50.617,186.199 51.465,187 C 51.756,187.275 52.037,195.150 52.091,204.500 C 52.124,210.167 52.156,215.833 52.189,221.500 C 52.463,217.238 52.737,212.975 53.011,208.713 C 54.380,187.426 58.254,172.210 66.456,155.899 C 72.300,144.276 77.320,137.264 87.848,126.014 C 95.621,117.708 96.927,116.694 98.337,117.864 C 99.223,118.599 100.235,120.738 100.587,122.615 C 100.939,124.492 101.739,126.359 102.364,126.764 C 104.323,128.033 109.022,137.711 108.755,139.927 C 108.550,141.626 110.174,140.705 117,135.248 C 138.549,118.022 155.002,111.701 178.500,111.620 C 194.978,111.563 202.865,113.655 223.888,123.657 C 230.693,126.895 232.974,128.426 232.180,129.220 C 231.408,129.992 230.703,130.003 229.792,129.258 C 227.598,127.463 216.331,121.998 214.876,122.023 C 214.119,122.036 215.637,123.386 218.250,125.023 C 219.833,126.015 221.417,127.008 223,128 ZM 169.331,113.426 C 166.459,114.528 169.210,116 174.142,116 C 177.714,116 179.048,115.639 178.756,114.750 C 178.318,113.416 171.759,112.494 169.331,113.426 Z" fill="#7162F2" stroke="none" />
  <path id="3" d="M 47,221 C 47.838,188.075 48.856,179.502 53.511,166.143 C 54.341,163.762 55.170,161.381 56,159 C 55.990,160.364 55.981,161.729 55.971,163.093 C 55.934,168.449 58.014,167.875 59.696,162.065 C 60.378,159.709 61.395,157.230 61.955,156.555 C 62.515,155.880 63.660,153.342 64.499,150.914 C 66.382,145.469 69.217,140 70.157,140 C 70.543,140 71.878,137.961 73.122,135.470 C 76.804,128.097 92.689,115.022 115,101 C 116,100.667 117,100.333 118,100 C 116.667,101.052 115.333,102.103 114,103.155 C 111.800,104.890 110,106.826 110,107.458 C 110,108.090 111.273,110.382 112.830,112.553 C 114.387,114.724 116.246,118.075 116.963,120 C 119.360,126.440 120.712,126.734 127.506,122.289 C 133.427,118.415 149.540,112.971 155,113 C 156.417,112.666 157.833,112.333 159.250,111.999 C 161.587,111.448 168.450,110.721 174.500,110.383 C 189.761,109.530 208.145,112.796 223,119 C 226.023,120.452 229.045,121.903 232.068,123.355 C 237.871,126.142 242.877,129.424 245.972,132.473 C 251.126,137.550 252.694,137.736 252.753,133.279 C 252.773,131.751 253.505,128.700 254.380,126.500 C 255.255,124.300 255.977,121.509 255.985,120.297 C 255.993,119.085 256.541,116.906 257.202,115.455 C 258.291,113.065 258.103,112.495 252,106 C 253.333,106.667 254.667,107.333 256,108 C 258.572,109.323 261.144,110.646 263.716,111.969 C 266.288,113.292 268.859,114.614 271.431,115.937 C 271.287,114.291 271.144,112.646 271,111 C 281.953,121.240 290.673,132.014 296.634,142.673 C 297.883,144.906 299.131,147.139 300.380,149.372 C 296.567,151.288 292.753,153.203 288.940,155.119 C 282.648,158.280 274.859,162.921 271.630,165.433 C 268.401,167.945 265.148,170 264.400,170 C 263.652,170 262.076,168.087 260.898,165.750 C 254.863,153.777 243.136,141.215 229.853,132.497 C 227.569,130.998 225.284,129.499 223,128 C 221.417,127.008 219.833,126.015 218.250,125.023 C 215.637,123.386 214.119,122.036 214.876,122.023 C 216.331,121.998 227.598,127.463 229.792,129.258 C 230.703,130.003 231.408,129.992 232.180,129.220 C 232.974,128.426 230.693,126.895 223.888,123.657 C 202.865,113.655 194.978,111.563 178.500,111.620 C 155.002,111.701 138.549,118.022 117,135.248 C 110.174,140.705 108.550,141.626 108.755,139.927 C 109.022,137.711 104.323,128.033 102.364,126.764 C 101.739,126.359 100.939,124.492 100.587,122.615 C 100.235,120.738 99.223,118.599 98.337,117.864 C 96.927,116.694 95.621,117.708 87.848,126.014 C 77.320,137.264 72.300,144.276 66.456,155.899 C 58.254,172.210 54.380,187.426 53.011,208.713 C 52.737,212.975 52.463,217.238 52.189,221.500 C 52.156,215.833 52.124,210.167 52.091,204.500 C 52.037,195.150 51.756,187.275 51.465,187 C 50.617,186.199 49.259,199.653 49.124,210.191 C 49.056,215.521 48.550,220.134 47,221 ZM 267.391,151.090 C 265.617,152.563 265.616,155.093 267.390,157.519 C 268.592,159.163 269.142,159.256 271.438,158.210 C 272.899,157.544 275.361,157 276.909,157 C 279.823,157 288.989,150.486 288.996,148.409 C 289.004,146.080 277.308,130.500 275.551,130.500 C 273.859,130.500 271.450,136.987 269.342,147.218 C 269.034,148.713 268.156,150.455 267.391,151.090 ZM 276.250,121.013 C 274.274,120.992 274.738,121.989 278.750,126.388 C 280.812,128.650 283.206,131.590 284.069,132.921 C 285.008,134.369 286.116,135.046 286.827,134.607 C 288.204,133.756 278.306,121.035 276.250,121.013 Z" fill="#6A7EE5" stroke="none" />
  <path id="8" d="M 422,155 C 410.565,159.442 402.169,161.444 382.592,164.397 C 377.895,165.106 373.197,165.814 368.500,166.523 C 368.482,167.643 368.463,168.762 368.445,169.882 C 368.370,174.435 365.920,176 358.868,176 C 355.706,176 352.816,176.489 352.446,177.087 C 349.122,182.466 373.466,181.694 393.500,175.785 C 407.933,171.528 432.450,158.187 437.894,151.628 C 440.166,148.890 438.698,148.858 432.169,151.502 C 430.113,152.335 428.056,153.167 426,154 C 426,153 426,152 426,151 C 429.028,149.805 432.055,148.611 435.083,147.416 C 440.079,145.445 444.328,143.995 444.527,144.194 C 444.726,144.393 443.788,146.455 440,153 C 438.917,153.868 437.833,154.736 436.750,155.604 C 434.962,157.036 431.700,159.849 429.500,161.854 C 427.300,163.859 424.712,166.062 422,168 C 419.583,168.964 417.167,169.929 414.750,170.893 C 410.763,172.484 403.337,175.184 389,180 C 386.583,180.502 384.167,181.005 381.750,181.507 C 377.763,182.336 365.970,183.701 355.545,184.541 C 330.422,186.564 323.831,188.019 310.500,194.484 C 291.762,203.571 281.048,214.288 267,238 C 267.002,237.750 267.004,237.500 267.006,237.250 C 267.009,236.837 266.334,236.355 265.506,236.177 C 264.666,235.997 264,236.549 264,237.427 C 264,238.292 264.675,239 267,239 C 266.333,240 265.667,241 265,242 C 265.002,241.750 265.004,241.500 265.006,241.250 C 265.009,240.837 264.415,240.370 263.686,240.211 C 262.856,240.030 260.218,244.521 256.637,252.211 C 253.489,258.970 249.583,266.862 245,275 C 246,272 247,269 248,266 C 248.083,265.591 248.167,265.183 248.250,264.774 C 248.387,264.100 247.239,263.104 245.697,262.562 C 243.694,261.858 242.481,261.923 240,264 C 239.280,265.222 238.559,266.443 237.839,267.665 C 236.650,269.681 233.950,273.056 228,279 C 228.839,277.750 229.679,276.500 230.518,275.250 C 233.704,270.506 242.313,252.778 243.995,247.500 C 245.957,241.343 251.751,227.553 254.160,223.308 C 267.341,200.080 281.858,185.710 302.500,175.458 C 317.441,168.037 326.452,166.178 353.415,164.952 C 385.892,163.476 394,162.287 394,159 C 400.333,157.667 406.667,156.333 413,155 C 412.998,155.250 412.996,155.500 412.994,155.750 C 412.991,156.163 413.666,156.645 414.494,156.823 C 415.334,157.003 416,156.451 416,154 C 416.333,153.667 416.667,153.333 417,153 C 417.333,153 417.667,153 418,153 C 418.667,153 419.333,153 420,153 C 420.667,153.667 421.333,154.333 422,155 Z" fill="#00CCC0" stroke="none" />
  <path id="17" d="M 406,301 C 397.384,285.821 390.935,280.484 377.576,277.479 C 375.384,276.986 373.192,276.493 371,276 C 366.333,275.667 361.667,275.333 357,275 C 357.667,274.667 358.333,274.333 359,274 C 373.846,273.974 376.045,273.671 375,272.985 C 374.500,272.657 374,272.328 373.500,272 C 374,271.660 374.500,271.321 375,270.981 C 375.859,270.398 378.598,270.234 381.410,270.597 C 383.047,270.809 384.684,271.020 386.321,271.232 C 385.851,269.550 385.380,267.868 384.910,266.186 C 383.814,262.266 382.607,260.484 379.500,258.203 C 375.686,255.403 374.241,254.029 368.510,247.750 C 367.673,246.833 366.837,245.917 366,245 C 366.004,244.750 366.007,244.500 366.011,244.250 C 366.017,243.837 366.658,243.625 367.437,243.777 C 368.216,243.929 369.112,243.142 370,240 C 370.333,241 370.667,242 371,243 C 371.333,243 371.667,243 372,243 C 372,242 372,241 372,240 C 370.667,239.814 369.333,239.629 368,239.443 C 361.808,238.580 363.278,236.998 370.250,237.022 C 382.581,237.065 400.048,242.180 411.642,249.145 C 420.354,254.379 425.345,259.271 437,274 C 437.659,275.493 438.318,276.986 438.977,278.479 C 440.876,282.781 444.162,295.324 445.484,303.314 C 445.831,305.412 445.567,309.574 444.898,312.564 C 443.860,317.202 443.347,318 441.400,318 C 440.145,318 438.840,318.450 438.500,319 C 438.160,319.550 436.838,320 435.563,320 C 434.288,320 432.685,320.675 432,321.500 C 431.315,322.325 429.904,323 428.864,323 C 427.084,323 423.104,324.791 422,326.088 C 420.913,327.366 416.866,327.801 416.581,326.672 C 416.418,326.027 415.562,323.025 414.678,320 C 413.794,316.975 412.800,313.487 412.468,312.250 C 411.721,309.462 409.551,309.341 408,312 C 407.667,309.333 407.333,306.667 407,304 C 407.250,304.002 407.500,304.004 407.750,304.006 C 408.163,304.009 408.645,303.334 408.823,302.506 C 409.003,301.666 408.451,301 406,301 ZM 376.500,274 C 376.225,274 376,274.225 376,274.500 C 376,274.775 376.225,275 376.500,275 C 376.775,275 377,274.775 377,274.500 C 377,274.225 376.775,274 376.500,274 Z" fill="#23D2A6" stroke="none" />
  <path id="2" d="M 246.712,302.258 C 251.840,296.465 252.293,297.471 247.497,304.004 C 242.697,310.542 232.424,319.980 223.736,325.832 C 214.968,331.738 212.256,333.141 204.500,335.785 C 188.592,341.208 181.447,342.501 156.500,344.472 C 131.683,346.433 128.026,346.839 118.500,348.683 C 103.486,351.590 92.615,355.427 73.716,364.492 C 70.535,366.018 67.641,366.974 67.285,366.618 C 66.929,366.262 67.997,364.514 69.660,362.735 C 71.323,360.956 74.770,356.733 77.321,353.352 C 84.665,343.618 102.287,329.344 114.500,323.236 C 122.541,319.215 135.145,315.332 142.500,314.611 C 144.500,314.415 146.500,314.218 148.500,314.022 C 146.821,314.454 145.143,314.888 143.464,315.320 C 134.379,317.660 133.999,318.753 140.750,323.111 C 142.333,324.133 143.917,325.155 145.500,326.177 C 149.667,325.988 153.833,325.798 158,325.609 C 183.611,324.445 196.185,322.444 206.593,317.871 C 213.496,314.838 226.588,306.403 232.467,301.200 C 235.199,298.782 237.585,297.253 237.768,297.803 C 237.951,298.353 235.851,300.740 233.101,303.109 C 229.301,306.382 228.358,307.726 229.173,308.708 C 230.612,310.441 235.161,310.346 237.559,308.532 C 238.627,307.725 240.175,307.053 241,307.040 C 241.825,307.027 244.396,304.875 246.712,302.258 Z" fill="#25298B" stroke="none" />
  <path id="20" d="M 146,209 C 146.167,215.804 146.333,222.608 146.500,229.412 C 152.167,232.893 157.833,236.373 163.500,239.854 C 169.167,243.335 174.833,246.816 180.500,250.297 C 185.500,247.193 190.500,244.088 195.500,240.984 C 203.750,235.862 211.629,230.640 213.009,229.379 C 213.845,228.615 214.683,227.851 215.519,227.087 C 216.846,227.832 218.174,228.575 219.501,229.320 C 221.691,230.549 223.640,232.369 223.832,233.365 C 224.240,235.486 217.366,251.760 215.071,254.106 C 214.207,254.989 207.650,259.085 200.500,263.208 C 193.350,267.331 185.925,271.648 184,272.801 C 182.833,273.500 181.667,274.197 180.500,274.896 C 177.167,272.930 173.833,270.966 170.500,269 C 165,265.757 155.775,260.406 150,257.109 C 144.225,253.812 136.350,249.177 132.500,246.808 C 130.167,245.372 127.833,243.936 125.500,242.500 C 125.417,234.417 125.333,226.333 125.250,218.250 C 125.167,210.167 125.083,202.083 125,194 C 127.703,197.014 127.973,196.774 128.961,193.342 C 129.569,191.229 130.346,187.314 130.686,184.643 C 131.372,179.253 133.894,176.962 141.400,174.909 C 145.068,173.906 145.433,174.011 147.554,176.671 C 150.188,179.975 150.066,180.302 144.990,183.506 C 142.713,184.944 141.016,186.862 140.824,188.216 C 140.381,191.338 143.637,207.084 144.944,208.144 C 145.296,208.429 145.648,208.715 146,209 ZM 161.500,253.544 C 159.500,253.296 157.500,253.048 155.500,252.800 C 157.167,253.947 158.833,255.094 160.500,256.241 C 170.758,263.299 179.323,268.031 180.890,267.506 C 181.776,267.209 183.625,266.078 185,264.991 C 186.981,263.425 187.216,262.830 186.132,262.125 C 185.380,261.636 184.850,261.150 184.956,261.044 C 185.062,260.938 184.102,260.595 182.824,260.281 C 181.546,259.967 180.050,259.378 179.500,258.971 C 178.950,258.564 176.925,257.910 175,257.517 C 173.075,257.125 170.600,256.238 169.500,255.546 C 168.400,254.854 164.800,253.953 161.500,253.544 Z" fill="#7259E0" stroke="none" />
  <path id="22" d="M 142,301 C 128.231,301 109.265,305.002 101.517,309.543 C 96.100,312.718 94.259,312.291 88.517,306.529 C 87.345,305.353 86.172,304.176 85,303 C 86.849,304.384 88.699,305.768 90.548,307.152 C 94.313,309.969 96.423,310.977 97.114,310.286 C 97.805,309.595 96.504,308.072 93.066,305.549 C 90.280,303.504 88,301.260 88,300.564 C 88,299.868 85.837,296.419 83.194,292.899 C 80.551,289.379 76.951,284.138 72,276 C 64.074,262.646 56.063,237.960 56.016,226.750 C 56.011,225.500 56.005,224.250 56,223 C 56.167,220.876 56.333,218.751 56.500,216.627 C 58.206,217.856 59.913,219.085 61.619,220.314 C 64.435,222.342 67.187,224 67.735,224 C 68.283,224 71.380,226.455 74.616,229.456 C 77.852,232.457 81.287,235.607 82.250,236.456 C 82.833,236.971 83.417,237.485 84,238 C 90.315,253.077 93.500,258.798 101.129,268.761 C 109.949,280.280 124.997,292.281 137.301,297.607 C 139.885,298.726 142,299.946 142,300.320 C 142,300.547 142,300.773 142,301 Z" fill="#292085" stroke="none" />
  <path id="38" d="M 214,401 C 221.456,389.167 237.179,369.718 242.693,365.508 C 247.687,361.695 255.910,358.290 262.010,357.510 C 263.340,357.340 264.670,357.170 266,357 C 292,357 318,357 344,357 C 341.149,357.259 338.297,357.519 335.446,357.778 C 327.928,358.462 326.972,358.764 327.553,360.278 C 328.019,361.493 329.342,362 332.042,362 C 334.147,362 337.024,362.450 341,364 C 342,364 343,364 344,364 C 344.417,364.250 344.833,364.500 345.250,364.750 C 345.938,365.163 339.413,365.837 315,367 C 312.750,366.837 310.500,366.675 308.250,366.512 C 304.538,366.244 292.746,365.542 282.047,364.952 C 271.348,364.362 262.348,363.793 262.047,363.689 C 261.008,363.329 256.491,363.826 254.125,364.561 C 252.599,365.035 251.750,366.060 251.750,367.429 C 251.750,368.767 250.269,370.623 247.769,372.420 C 245.580,373.994 241.811,377.918 235,387 C 235.416,385.466 235.832,383.932 236.248,382.398 C 237.494,377.806 237.492,377.797 235.048,378.148 C 232.158,378.564 218,396.010 218,399.156 C 218,400.841 218.498,401.041 225,400 C 230.333,399.667 235.667,399.333 241,399 C 241,399.250 240.999,399.500 240.999,399.750 C 240.999,400.163 250.899,400.621 262.999,400.769 C 285.254,401.041 286.920,400.777 283.638,397.495 C 282.597,396.454 278.118,396.117 247,396 C 245.583,395.709 244.167,395.417 242.750,395.126 C 239.639,394.486 245.554,394.044 264.833,393.472 C 285.852,392.849 291.461,392.396 292.630,391.227 C 293.436,390.421 294.412,390.078 294.798,390.463 C 295.184,390.848 295.500,388.092 295.500,384.337 C 295.500,378.991 295.825,377.482 297,377.385 C 297.951,377.306 298.244,376.729 297.800,375.806 C 297.393,374.960 297.812,373.685 298.800,372.760 C 300.398,371.264 300.396,371.163 298.750,371.084 C 297.788,371.038 297,370.550 297,370 C 297,368.672 300.704,368.713 301.530,370.049 C 301.975,370.770 302.605,370.742 303.545,369.962 C 304.297,369.338 305.294,369.064 305.760,369.352 C 306.226,369.640 308.496,369.454 315,368 C 315.500,368.137 316,368.275 316.500,368.412 C 317.325,368.638 318,368.387 318,367.853 C 318,367.319 318.517,367.201 319.149,367.592 C 319.781,367.983 321.468,368.347 322.899,368.401 C 324.372,368.457 325.613,369.151 325.760,370 C 325.903,370.825 326.182,371.500 326.380,371.500 C 326.578,371.500 327.141,372.027 327.630,372.670 C 328.119,373.313 329.188,373.988 330.006,374.170 C 330.824,374.352 332.021,375.175 332.666,376 C 333.311,376.825 334.212,377.560 334.669,377.633 C 339.044,378.335 341.420,379.488 343.652,381.994 C 345.098,383.617 346.715,384.675 347.247,384.347 C 347.842,383.979 347.952,384.944 347.532,386.856 C 346.875,389.846 346.993,389.984 350.675,390.543 C 352.779,390.862 355.737,391.171 357.250,391.229 C 358.823,391.289 360,391.904 360,394 C 356,395 352,396 348,397 C 344.333,397.333 340.667,397.667 337,398 C 337.002,397.750 337.003,397.500 337.005,397.250 C 337.013,395.967 328.759,395.856 323.128,397.065 C 319.204,397.907 317.654,398.728 317,402 C 282.667,401.667 248.333,401.333 214,401 Z" fill="#6375AB" stroke="none" />
  <path id="18" d="M 396,197 C 372.738,203.097 365.187,204.459 349,205.479 C 343.775,205.808 337.025,206.557 334,207.144 C 321.647,209.540 305.677,219.424 298.307,229.237 C 291.176,238.731 288.415,244.061 274.996,274.229 C 272.127,280.680 268.478,287.992 266.889,290.479 C 265.926,291.986 264.963,293.493 264,295 C 262.417,296.413 260.833,297.825 259.250,299.238 C 257.667,300.651 256.083,302.062 254.500,303.475 C 256.057,300.812 257.614,298.151 259.171,295.488 C 264.069,287.113 269.474,272.674 272.455,260 C 274.313,252.102 284.250,229.557 287,227 C 287,227.229 287,227.457 287,227.686 C 287,228.063 289.587,225.251 292.750,221.436 C 297.803,215.341 302.551,207.217 301.610,206.276 C 301.430,206.096 299.307,206.814 296.892,207.870 C 291.272,210.328 281.295,219.922 277,227 C 276.565,227.417 276.129,227.833 275.694,228.250 C 274.976,228.938 273.738,230.950 272.944,232.722 C 267.526,244.809 258.299,261.297 256,263 C 257.667,259 259.333,255 261,251 C 261.333,250.667 261.667,250.333 262,250 C 262,249.667 262,249.333 262,249 C 262.333,248.667 262.667,248.333 263,248 C 263.333,246.667 263.667,245.333 264,244 C 264.333,243.667 264.667,243.333 265,243 C 265,242.667 265,242.333 265,242 C 265.667,241 266.333,240 267,239 C 267,238.667 267,238.333 267,238 C 281.048,214.288 291.762,203.571 310.500,194.484 C 323.831,188.019 330.422,186.564 355.545,184.541 C 365.970,183.701 377.763,182.336 381.750,181.507 C 384.167,181.005 386.583,180.502 389,180 C 388.987,180.250 388.973,180.500 388.960,180.750 C 388.938,181.163 389.889,181.950 391.073,182.500 C 392.257,183.050 393.447,184.062 393.719,184.750 C 393.991,185.438 394.859,186 395.647,186 C 400.274,186 419.691,172.737 422,168 C 424.712,166.062 427.300,163.859 429.500,161.854 C 431.700,159.849 434.962,157.036 436.750,155.604 C 437.833,154.736 438.917,153.868 440,153 C 439.083,154.436 438.167,155.872 437.250,157.308 C 435.737,159.678 431.941,163.840 428.814,166.558 C 423.402,171.262 421.446,172.778 411,180.355 C 408.525,182.150 402.900,185.342 398.500,187.449 C 394.100,189.556 389.168,191.925 387.540,192.714 C 377.979,197.347 364.078,199.982 349.026,200.017 C 331.165,200.058 314.535,206.489 303.250,217.718 C 296.659,224.277 298.238,224.787 305.750,218.525 C 317.590,208.655 328.383,204.645 346.116,203.523 C 360.500,202.613 371.266,201.181 379.500,199.081 C 383.350,198.099 389.312,196.779 399,195 C 398,195.667 397,196.333 396,197 Z" fill="#19A0A3" stroke="none" />
  <path id="71" d="M 463,136 C 463,136.333 463,136.667 463,137 C 459.771,140.875 458.245,142 457.526,142 C 456.761,142 456.038,140.453 455.783,138.271 C 455.638,137.028 455.493,135.785 455.348,134.542 C 454.417,135.152 453.485,135.763 452.554,136.373 C 451.017,137.380 444.414,141.083 437.880,144.602 C 433.920,146.735 429.960,148.867 426,151 C 426,152 426,153 426,154 C 425.667,154 425.333,154 425,154 C 424.333,154.333 423.667,154.667 423,155 C 422.667,155 422.333,155 422,155 C 421.333,154.333 420.667,153.667 420,153 C 419.333,153 418.667,153 418,153 C 417.667,153 417.333,153 417,153 C 398.788,155.405 391.374,156.366 388.775,156.688 C 382.957,157.408 383.497,159 389.559,159 C 391.039,159 392.520,159 394,159 C 394,162.287 385.892,163.476 353.415,164.952 C 326.452,166.178 317.441,168.037 302.500,175.458 C 281.858,185.710 267.341,200.080 254.160,223.308 C 251.751,227.553 245.957,241.343 243.995,247.500 C 242.313,252.778 233.704,270.506 230.518,275.250 C 229.679,276.500 228.839,277.750 228,279 C 225,282 222,285 219,288 C 218.333,288 217.667,288 217,288 C 216.333,287.333 215.667,286.667 215,286 C 215,285.333 215,284.667 215,284 C 224.078,272.461 227.923,266.271 232.858,255.250 C 234.239,252.167 235.619,249.083 237,246 C 237.333,245.667 237.667,245.333 238,245 C 239.667,240.667 241.333,236.333 243,232 C 243.333,231.667 243.667,231.333 244,231 C 244,230.667 244,230.333 244,230 C 244.333,229.667 244.667,229.333 245,229 C 245.667,227.333 246.333,225.667 247,224 C 247.333,223.667 247.667,223.333 248,223 C 248,222.667 248,222.333 248,222 C 248.333,221.667 248.667,221.333 249,221 C 249,220.667 249,220.333 249,220 C 249.333,219.667 249.667,219.333 250,219 C 251,217 252,215 253,213 C 253.333,212.667 253.667,212.333 254,212 C 255,210.333 256,208.667 257,207 C 257.333,206.667 257.667,206.333 258,206 C 258.667,205 259.333,204 260,203 C 260.333,202.667 260.667,202.333 261,202 C 263,199.667 265,197.333 267,195 C 268.667,193.333 270.333,191.667 272,190 C 273.333,188.667 274.667,187.333 276,186 C 276.667,185.333 277.333,184.667 278,184 C 279.333,183 280.667,182 282,181 C 282.333,180.667 282.667,180.333 283,180 C 283.667,179.667 284.333,179.333 285,179 C 285.333,178.667 285.667,178.333 286,178 C 295.688,171.794 298.837,169.994 299.250,169.996 C 299.500,169.997 299.750,169.999 300,170 C 300.333,169.667 300.667,169.333 301,169 C 322.664,160.346 330.531,158.658 359,156.556 C 370.825,155.683 381.850,154.753 383.500,154.490 C 385.150,154.227 391.788,153.109 398.250,152.006 C 402.167,151.337 406.083,150.669 410,150 C 410.667,149.667 411.333,149.333 412,149 C 412.333,149 412.667,149 413,149 C 413.333,148.667 413.667,148.333 414,148 C 414.667,148 415.333,148 416,148 C 416.333,147.667 416.667,147.333 417,147 C 417.667,147 418.333,147 419,147 C 419.333,146.667 419.667,146.333 420,146 C 420.333,146 420.667,146 421,146 C 421.333,145.667 421.667,145.333 422,145 C 422.667,145 423.333,145 424,145 C 424.333,144.667 424.667,144.333 425,144 C 425.333,144 425.667,144 426,144 C 426.333,143.667 426.667,143.333 427,143 C 427.667,143 428.333,143 429,143 C 429.333,142.667 429.667,142.333 430,142 C 430.667,142 431.333,142 432,142 C 432.333,141.667 432.667,141.333 433,141 C 433.333,141 433.667,141 434,141 C 434.333,140.667 434.667,140.333 435,140 C 435.333,140 435.667,140 436,140 C 436.333,139.667 436.667,139.333 437,139 C 437.333,139 437.667,139 438,139 C 438.333,138.667 438.667,138.333 439,138 C 439.667,137.667 440.333,137.333 441,137 C 442.333,136 443.667,135 445,134 C 445.333,134 445.667,134 446,134 C 448.667,132 451.333,130 454,128 C 454.333,128 454.667,128 455,128 C 455.667,127.333 456.333,126.667 457,126 C 457.667,125.667 458.333,125.333 459,125 C 459.667,124.333 460.333,123.667 461,123 C 462,122.333 463,121.667 464,121 C 464.667,120.333 465.333,119.667 466,119 C 467,118 468,117 469,116 C 469.333,115.667 469.667,115.333 470,115 C 470.667,114.667 471.333,114.333 472,114 C 473.628,115.162 474.078,115.838 474.050,116.250 C 474.033,116.500 474.017,116.750 474,117 C 473.333,118.333 472.667,119.667 472,121 C 471.667,121.333 471.333,121.667 471,122 C 471,122.333 471,122.667 471,123 C 470.667,123.333 470.333,123.667 470,124 C 469.667,125 469.333,126 469,127 C 468.667,127.333 468.333,127.667 468,128 C 468,128.333 468,128.667 468,129 C 466.333,131.333 464.667,133.667 463,136 ZM 422.500,151 C 422.225,151 422,151.225 422,151.500 C 422,151.775 422.225,152 422.500,152 C 422.775,152 423,151.775 423,151.500 C 423,151.225 422.775,151 422.500,151 Z" fill="#89E0D7" stroke="none" />
  <path id="11" d="M 237,88 C 241.262,89.644 246.212,92.569 250.750,95.561 C 253.500,97.374 256.250,99.187 259,101 C 258.583,101.082 258.167,101.165 257.750,101.247 C 257.062,101.383 253.866,99.764 250.647,97.650 C 246.169,94.709 244.524,94.085 243.647,94.990 C 242.375,96.302 242.922,96.819 251.500,102.398 C 254.250,104.187 256.388,106.179 256,108 C 254.667,107.333 253.333,106.667 252,106 C 233.939,96.625 228.089,94.136 227.348,94.420 C 226.607,94.704 226,95.902 226,97.082 C 226,99.743 222.106,107.048 219.750,108.807 C 217.137,110.758 217.534,114.692 220.500,116.246 C 221.875,116.966 223,117.881 223,118.278 C 223,118.519 223,118.759 223,119 C 208.145,112.796 189.761,109.530 174.500,110.383 C 168.450,110.721 161.587,111.448 159.250,111.999 C 157.833,112.333 156.417,112.666 155,113 C 154.593,112.333 154.186,111.667 153.779,111 C 152.730,109.281 152.818,109 154.404,109 C 155.932,109 156.144,108.470 155.634,105.919 C 155.295,104.224 154.114,101.689 153.009,100.284 C 151.904,98.879 151,96.884 151,95.850 C 151,93.803 145.612,90.010 142.695,90.004 C 141.702,90.002 137.717,91.350 133.840,93 C 129.963,94.650 125.487,96 123.895,96 C 122.166,96 120.396,96.806 118,100 C 117,100.333 116,100.667 115,101 C 114.665,100.805 114.329,100.610 113.994,100.415 C 112.341,99.453 113.602,98.443 120.672,95.066 C 126.170,92.440 127.218,91.570 126.418,90.301 C 125.563,88.946 124.650,89.148 119.220,91.889 C 115.799,93.616 113,94.572 113,93 C 120.621,88.723 139.079,80.859 141.250,80.964 C 141.500,80.976 141.750,80.988 142,81 C 131.653,85.622 130.436,86.882 139.036,84.072 C 143.631,82.570 145.056,82.480 148,83.505 C 149.167,83.911 150.333,84.317 151.500,84.723 C 149.817,84.958 148.135,85.193 146.452,85.428 C 143.676,85.815 140.769,86.525 139.992,87.005 C 138.376,88.004 150.949,87.371 161.192,85.937 C 171.434,84.503 174.529,84.749 177.699,87.250 C 185.089,93.080 187.882,93.284 197.887,88.723 C 199.349,88.056 200.811,87.390 202.273,86.723 C 206.914,87.638 211.556,88.553 216.197,89.468 C 230.434,92.275 234.497,92.372 226.812,89.721 C 223.142,88.455 222.793,88.112 224.469,87.425 C 225.682,86.928 228.689,87.281 232.301,88.346 C 235.526,89.296 237.902,89.607 237.582,89.037 C 237.388,88.691 237.194,88.346 237,88 Z" fill="#75C6F5" stroke="none" />
  <path id="55" d="M 315,368 C 308.496,369.454 306.226,369.640 305.760,369.352 C 305.294,369.064 304.297,369.338 303.545,369.962 C 302.605,370.742 301.975,370.770 301.530,370.049 C 300.704,368.713 297,368.672 297,370 C 297,370.550 297.788,371.038 298.750,371.084 C 300.396,371.163 300.398,371.264 298.800,372.760 C 297.812,373.685 297.393,374.960 297.800,375.806 C 298.244,376.729 297.951,377.306 297,377.385 C 295.825,377.482 295.500,378.991 295.500,384.337 C 295.500,388.092 295.184,390.848 294.798,390.463 C 294.412,390.078 293.436,390.421 292.630,391.227 C 291.461,392.396 285.852,392.849 264.833,393.472 C 245.554,394.044 239.639,394.486 242.750,395.126 C 244.167,395.417 245.583,395.709 247,396 C 245,397 243,398 241,399 C 235.667,399.333 230.333,399.667 225,400 C 225.667,398.333 226.333,396.667 227,395 C 227.333,395 227.667,395 228,395 C 230.333,392.333 232.667,389.667 235,387 C 241.811,377.918 245.580,373.994 247.769,372.420 C 250.269,370.623 251.750,368.767 251.750,367.429 C 251.750,366.060 252.599,365.035 254.125,364.561 C 256.491,363.826 261.008,363.329 262.047,363.689 C 262.348,363.793 271.348,364.362 282.047,364.952 C 292.746,365.542 304.538,366.244 308.250,366.512 C 310.500,366.675 312.750,366.837 315,367 C 315,367.333 315,367.667 315,368 Z" fill="#8556D4" stroke="none" />
  <path id="77" d="M 400,342 C 406.611,330.122 407.986,325.950 407.994,317.750 C 407.996,315.833 407.998,313.917 408,312 C 409.551,309.341 411.721,309.462 412.468,312.250 C 412.800,313.487 413.794,316.975 414.678,320 C 415.562,323.025 416.418,326.027 416.581,326.672 C 416.866,327.801 420.913,327.366 422,326.088 C 423.104,324.791 427.084,323 428.864,323 C 429.904,323 431.315,322.325 432,321.500 C 432.685,320.675 434.288,320 435.563,320 C 436.838,320 438.160,319.550 438.500,319 C 438.840,318.450 440.145,318 441.400,318 C 443.347,318 443.860,317.202 444.898,312.564 C 445.567,309.574 445.831,305.412 445.484,303.314 C 444.162,295.324 440.876,282.781 438.977,278.479 C 438.318,276.986 437.659,275.493 437,274 C 437.333,273.333 437.667,272.667 438,272 C 439,272 440,272 441,272 C 441.667,273.333 442.333,274.667 443,276 C 443.333,276.333 443.667,276.667 444,277 C 444.333,278 444.667,279 445,280 C 445.333,280.333 445.667,280.667 446,281 C 446,281.333 446,281.667 446,282 C 446.333,282.333 446.667,282.667 447,283 C 449.777,290.021 452.984,303.535 452.993,308.250 C 452.995,309.500 452.998,310.750 453,312 C 452.333,312 451.667,312 451,312 C 447.968,319.362 447.068,323.249 447.044,325.387 C 447.020,327.525 446.325,331.463 445.500,334.137 C 445,335.758 444.500,337.379 444,339 C 443.333,339 442.667,339 442,339 C 441.506,334.890 441.418,334.902 438,337.407 C 436.075,338.818 431.800,341.110 428.500,342.500 C 425.200,343.890 421.825,345.472 421,346.016 C 420.175,346.560 418.600,347.416 417.500,347.918 C 416.400,348.420 414.263,349.995 412.750,351.416 C 411.833,352.277 410.917,353.139 410,354 C 406.823,357.397 403.810,359 400.601,359 C 399.079,359 397.636,359.812 396.981,361.036 C 396.382,362.156 394.566,363.281 392.946,363.536 C 391.964,363.691 390.982,363.845 390,364 C 389.333,364 388.667,364 388,364 C 378.186,365.550 373.235,366 370.668,366 C 369.112,366 367.556,366 366,366 C 365,365.667 364,365.333 363,365 C 358,364.667 353,364.333 348,364 C 348,363.333 348,362.667 348,362 C 352.667,362 357.333,362 362,362 C 379.215,361.432 381.403,360.953 387,358.245 C 390.575,356.515 395.750,353.091 398.500,350.635 C 402.748,346.841 403.312,345.932 402.250,344.585 C 401.833,344.057 401.417,343.528 401,343 C 400.667,342.667 400.333,342.333 400,342 Z" fill="#95C190" stroke="none" />
  <path id="6" d="M 312,241 C 316.568,237.077 320.505,234.714 323.697,233.219 C 325.631,232.313 327.566,231.406 329.500,230.500 C 337.917,230.500 346.333,230.500 354.750,230.500 C 368.638,230.500 380,230.837 380,231.250 C 380,231.500 380,231.750 380,232 C 379.667,232.333 379.333,232.667 379,233 C 371.653,232.798 364.306,232.595 356.959,232.393 C 335.856,231.812 334.666,231.881 328.990,234.004 C 322.353,236.486 318.141,239.952 323.500,238.521 C 325.150,238.080 334.263,237.530 343.750,237.296 C 358.133,236.942 361,237.106 361,238.282 C 361,241.521 364.293,245.946 366,245 C 366.837,245.917 367.673,246.833 368.510,247.750 C 374.241,254.029 375.686,255.403 379.500,258.203 C 382.607,260.484 383.814,262.266 384.910,266.186 C 385.380,267.868 385.851,269.550 386.321,271.232 C 384.684,271.020 383.047,270.809 381.410,270.597 C 378.598,270.234 375.859,270.398 375,270.981 C 374.500,271.321 374,271.660 373.500,272 C 374,272.328 374.500,272.657 375,272.985 C 376.045,273.671 373.846,273.974 359,274 C 359.002,273.750 359.005,273.500 359.007,273.250 C 359.011,272.837 357.694,272.361 356.081,272.192 C 354.468,272.023 352.677,271.315 352.100,270.620 C 351.363,269.732 348.515,269.452 334,270 C 336.667,269 339.333,268 342,267 C 344.117,267.124 346.234,267.249 348.351,267.373 C 357.403,267.904 360.982,265.184 355.745,261.752 C 354.504,260.939 349.217,255.997 343.995,250.769 C 331.172,237.931 331.153,237.929 316,247 C 315,247.304 314,247.609 313,247.913 C 311.350,248.415 310,249.315 310,249.913 C 310,250.511 309.346,251 308.548,251 C 306.902,251 307.569,249.070 312,241 Z" fill="#1BCDAF" stroke="none" />
  <path id="7" d="M 314,299 C 322,299 330,299 338,299 C 345,299 352,299 359,299 C 363.502,299 368.121,301.732 372.272,306.849 C 377.447,313.229 378.800,317.983 376.937,323.254 C 374.578,329.930 371.518,331.458 359.930,331.750 C 356.620,331.833 353.310,331.917 350,332 C 348.417,331.793 346.833,331.585 345.250,331.378 C 342.638,331.036 339.487,330.361 336,329 C 335.833,328.088 335.667,327.175 335.500,326.263 C 335.225,324.758 335,322.293 335,320.786 C 335,317.775 330.952,314.294 328.914,315.553 C 328.176,316.009 327.923,315.763 328.233,314.889 C 328.549,313.998 326.416,312.064 322.288,309.500 C 318.747,307.300 314.245,304.487 312.285,303.250 C 310.179,301.921 307.141,301 301,301 C 305.333,300.333 309.667,299.667 314,299 ZM 349.684,301.650 C 349.327,302.007 351.816,304.258 355.216,306.652 C 362.128,311.519 371.817,315.583 373.204,314.196 C 374.423,312.978 366.536,303.154 363.374,301.952 C 360.544,300.876 350.675,300.659 349.684,301.650 Z" fill="#28BDB3" stroke="none" />
  <path id="16" d="M 154,160 C 160.400,155.971 166.306,152.347 171.253,149.347 C 174.251,147.529 177.250,145.710 180.248,143.892 C 186.457,147.722 192.665,151.551 198.874,155.381 C 209.118,161.700 221.212,168.992 225.750,171.585 C 230.288,174.178 234,176.621 234,177.013 C 234,177.405 229.720,180.316 224.489,183.481 C 221.319,185.399 218.148,187.317 214.978,189.235 C 210.665,186.612 206.351,183.991 202.038,181.368 C 194.921,177.041 187.056,172.375 184.559,171 C 183.046,170.167 181.532,169.333 180.019,168.500 C 178.516,169.250 177.013,170 175.510,170.750 C 174.007,171.500 172.503,172.250 171,173 C 169.121,173 170.134,171.685 172.038,170.077 C 174.914,167.649 175.318,166.844 174.425,165.327 C 171.584,160.499 158.368,157.877 157.308,161.931 C 157.030,162.993 156.116,164.125 155.276,164.447 C 154.141,164.883 153.782,164.389 153.875,162.517 C 153.917,161.678 153.958,160.839 154,160 Z" fill="#59DCEF" stroke="none" />
  <path id="42" d="M 463,137 C 446.169,161.939 439.606,169.658 418.483,189.359 C 403.148,203.662 390.134,214.468 389.277,213.611 C 388.941,213.275 390.317,210.525 392.334,207.500 C 393.556,205.667 394.778,203.833 396,202 C 399.487,196.590 400.163,195.015 399.750,195.010 C 399.500,195.007 399.250,195.003 399,195 C 389.312,196.779 383.350,198.099 379.500,199.081 C 371.266,201.181 360.500,202.613 346.116,203.523 C 328.383,204.645 317.590,208.655 305.750,218.525 C 298.238,224.787 296.659,224.277 303.250,217.718 C 314.535,206.489 331.165,200.058 349.026,200.017 C 364.078,199.982 377.979,197.347 387.540,192.714 C 389.168,191.925 394.100,189.556 398.500,187.449 C 402.900,185.342 408.525,182.150 411,180.355 C 421.446,172.778 423.402,171.262 428.814,166.558 C 431.941,163.840 435.737,159.678 437.250,157.308 C 438.167,155.872 439.083,154.436 440,153 C 443.788,146.455 444.726,144.393 444.527,144.194 C 444.328,143.995 440.079,145.445 435.083,147.416 C 432.055,148.611 429.028,149.805 426,151 C 429.960,148.867 433.920,146.735 437.880,144.602 C 444.414,141.083 451.017,137.380 452.554,136.373 C 453.485,135.763 454.417,135.152 455.348,134.542 C 455.493,135.785 455.638,137.028 455.783,138.271 C 456.038,140.453 456.761,142 457.526,142 C 458.245,142 459.771,140.875 463,137 Z" fill="#61CEA9" stroke="none" />
  <path id="63" d="M 452,331 C 449.598,342.615 446.798,349.979 443.462,356.756 C 438.727,366.376 436.728,369.219 429.711,376.319 C 420.220,385.921 413.187,390.784 402.736,394.969 C 392.298,399.149 384.737,400.987 375.750,401.531 C 373.167,401.687 370.583,401.844 368,402 C 364.333,402 360.667,402 357,402 C 350.667,401.333 344.333,400.667 338,400 C 337.667,399.333 337.333,398.667 337,398 C 340.667,397.667 344.333,397.333 348,397 C 372.172,395.094 390.392,391.854 395.437,388.564 C 396.571,387.824 397.163,387.170 396.750,387.110 C 396.500,387.073 396.250,387.037 396,387 C 396,386.667 396,386.333 396,386 C 396.450,386 396.899,386 397.349,386 C 398.091,386 399.441,383.975 402,377 C 402.640,376.500 403.279,376 403.919,375.500 C 404.974,374.675 406.527,374 407.369,374 C 408.211,374 409.294,373.438 409.775,372.750 C 411.728,369.958 417.019,368.412 418.182,370.294 C 418.689,371.114 420.077,370.477 422.706,368.220 C 431.220,360.911 434.184,356.932 440,345 C 441.333,343.667 442.667,342.333 444,341 C 443.387,343.083 442.774,345.167 442.161,347.250 C 439.734,355.499 437.110,360.455 431.563,367.264 C 428.132,371.476 417.239,381.297 411.306,385.527 C 411.199,385.603 408.174,386.979 404.583,388.583 C 400.992,390.187 398.042,391.837 398.027,392.250 C 397.939,394.694 406.569,391.481 416,385.558 C 421.788,381.923 436,367.307 436,364.990 C 436,364.013 436.593,362.986 437.319,362.708 C 438.530,362.243 442.662,354.589 446.337,346 C 447.161,344.075 448.547,339.688 451,330 C 451.333,330.333 451.667,330.667 452,331 Z" fill="#F5DA96" stroke="none" />
  <path id="61" d="M 363,366 C 364,366 365,366 366,366 C 367.556,366 369.112,366 370.668,366 C 373.235,366 378.186,365.550 388,364 C 388.667,364 389.333,364 390,364 C 390.982,363.845 391.964,363.691 392.946,363.536 C 394.566,363.281 396.382,362.156 396.981,361.036 C 397.636,359.812 399.079,359 400.601,359 C 403.810,359 406.823,357.397 410,354 C 409.338,355.500 408.675,357 408.013,358.500 C 406.920,360.975 405.559,363 404.988,363 C 404.417,363 403.500,364.237 402.949,365.750 C 401.004,371.090 398.591,374.881 396.388,376.060 C 395.162,376.716 394.349,377.871 395,380 C 394.333,380.667 393.667,381.333 393,382 C 393,382.333 393,382.667 393,383 C 393,383.333 393,383.667 393,384 C 392.750,384.008 392.500,384.015 392.250,384.023 C 391.837,384.035 391.604,384.461 391.732,384.969 C 391.860,385.477 391.185,386.692 390.232,387.668 C 388.577,389.364 388.666,389.388 396,387 C 396.250,387.037 396.500,387.073 396.750,387.110 C 397.163,387.170 396.571,387.824 395.437,388.564 C 390.392,391.854 372.172,395.094 348,397 C 352,396 356,395 360,394 C 364.893,393.973 365.169,393.755 364,393 C 362.945,392.318 362.881,392.026 363.785,392.015 C 364.812,392.003 364.825,391.547 363.853,389.750 C 363.184,388.513 362.513,386.375 362.362,385 C 362.211,383.625 361.799,381.375 361.447,380 C 360.182,375.060 359.701,372.459 359.601,370 C 359.545,368.625 359.050,367.169 358.500,366.765 C 357.950,366.361 358.737,366.023 360.250,366.015 C 361.167,366.010 362.083,366.005 363,366 Z" fill="#859D81" stroke="none" />
  <path id="20" d="M 277,300 C 289.333,299.667 301.667,299.333 314,299 C 309.667,299.667 305.333,300.333 301,301 C 300.298,301.145 299.597,301.289 298.895,301.434 C 294.850,302.268 297.640,304.546 310.274,310.725 C 322.208,316.562 323.122,317.217 324.933,321.225 C 325.995,323.576 327.106,326.288 327.401,327.250 C 327.796,328.539 329,329 336,329 C 339.487,330.361 342.638,331.036 345.250,331.378 C 346.833,331.585 348.417,331.793 350,332 C 330.867,331.833 311.734,331.667 292.601,331.500 C 292.230,329.500 291.860,327.500 291.489,325.500 C 290.174,318.405 288.835,315.738 282.076,306.750 C 280.384,304.500 278.692,302.250 277,300 Z" fill="#7259E0" stroke="none" />
  <path id="12" d="M 56,223 C 56.140,197.553 56.637,191.494 59.630,178.750 C 60.909,173.304 61.587,172 63.140,172 C 64.198,172 65.406,172.924 65.824,174.054 C 66.242,175.184 67.652,176.646 68.958,177.304 C 70.264,177.962 71.820,179.950 72.416,181.721 C 73.012,183.492 74.960,186.192 76.744,187.721 C 80.392,190.847 80.297,190.172 80.101,211.500 C 80.006,221.868 80.389,225.867 81.991,231.250 C 82.661,233.500 83.330,235.750 84,238 C 83.417,237.485 82.833,236.971 82.250,236.456 C 81.287,235.607 77.852,232.457 74.616,229.456 C 71.380,226.455 68.283,224 67.735,224 C 67.187,224 64.435,222.342 61.619,220.314 C 59.913,219.085 58.206,217.856 56.500,216.627 C 56.333,218.751 56.167,220.876 56,223 Z" fill="#3336BC" stroke="none" />
  <path id="35" d="M 155,113 C 149.540,112.971 133.427,118.415 127.506,122.289 C 120.712,126.734 119.360,126.440 116.963,120 C 116.246,118.075 114.387,114.724 112.830,112.553 C 111.273,110.382 110,108.090 110,107.458 C 110,106.826 111.800,104.890 114,103.155 C 115.333,102.103 116.667,101.052 118,100 C 120.396,96.806 122.166,96 123.895,96 C 125.487,96 129.963,94.650 133.840,93 C 137.717,91.350 141.702,90.002 142.695,90.004 C 145.612,90.010 151,93.803 151,95.850 C 151,96.884 151.904,98.879 153.009,100.284 C 154.114,101.689 155.295,104.224 155.634,105.919 C 156.144,108.470 155.932,109 154.404,109 C 152.818,109 152.730,109.281 153.779,111 C 154.186,111.667 154.593,112.333 155,113 Z" fill="#64ABE7" stroke="none" />
  <path id="5" d="M 252,106 C 258.103,112.495 258.291,113.065 257.202,115.455 C 256.541,116.906 255.993,119.085 255.985,120.297 C 255.977,121.509 255.255,124.300 254.380,126.500 C 253.505,128.700 252.773,131.751 252.753,133.279 C 252.694,137.736 251.126,137.550 245.972,132.473 C 242.877,129.424 237.871,126.142 232.068,123.355 C 229.045,121.903 226.023,120.452 223,119 C 223,118.759 223,118.519 223,118.278 C 223,117.881 221.875,116.966 220.500,116.246 C 217.534,114.692 217.137,110.758 219.750,108.807 C 222.106,107.048 226,99.743 226,97.082 C 226,95.902 226.607,94.704 227.348,94.420 C 228.089,94.136 233.939,96.625 252,106 Z" fill="#6FA3EE" stroke="none" />
  <path id="21" d="M 371,276 C 307.908,276 292,275.627 292,275.073 C 292,274.277 294.964,267.526 300.639,255.393 C 301.438,253.684 304.321,249.747 307.046,246.643 C 308.697,244.762 310.349,242.881 312,241 C 307.569,249.070 306.902,251 308.548,251 C 309.346,251 310,250.511 310,249.913 C 310,249.315 311.350,248.415 313,247.913 C 314,247.609 315,247.304 316,247 C 315.060,248.669 315.736,250.037 316.894,251.116 C 318.053,252.195 319,253.705 319,254.471 C 319,255.237 320.462,256.876 322.250,258.113 C 324.038,259.350 326.770,261.856 328.323,263.681 C 330.878,266.685 331.661,267 336.573,267 C 338.382,267 340.191,267 342,267 C 339.333,268 336.667,269 334,270 C 331.853,270 329.706,270 327.559,270 C 320.840,270 318.224,271.392 322.190,272.857 C 323.461,273.326 331.812,274.001 357,275 C 361.667,275.333 366.333,275.667 371,276 Z" fill="#4AA3BC" stroke="none" />
  <path id="13" d="M 171,302 C 180.121,301.268 184.845,300.367 187.384,299.527 C 188.923,299.018 190.461,298.509 192,298 C 191.533,298.820 191.065,299.639 190.598,300.459 C 191.832,300.049 193.065,299.639 194.299,299.229 C 195.533,298.819 196.766,298.410 198,298 C 198.099,298.379 198.197,298.758 198.296,299.137 C 198.484,299.860 200.484,299.314 209,295 C 211.348,295 213.598,293.425 215.515,291.500 C 216.677,290.333 217.838,289.167 219,288 C 222,285 225,282 228,279 C 233.950,273.056 236.650,269.681 237.839,267.665 C 238.559,266.443 239.280,265.222 240,264 C 240.775,263.837 241.550,263.675 242.325,263.512 C 243.613,263.242 245.398,263.688 248,266 C 247,269 246,272 245,275 C 245,276 245,277 245,278 C 244.581,278.833 244.162,279.667 243.743,280.500 C 244.286,280.083 244.828,279.667 245.371,279.250 C 245.914,278.833 246.457,278.417 247,278 C 247.667,277.667 248.333,277.333 249,277 C 247.659,278.917 246.319,280.833 244.978,282.750 C 242.766,285.913 238.943,290.300 236.482,292.500 C 234.991,293.833 233.499,295.167 232.008,296.500 C 233.007,294.860 234.005,293.219 235.004,291.579 C 238.788,285.364 238.803,283.467 235.033,287.875 C 232.296,291.075 231.906,291.213 227.505,290.553 C 225.958,290.321 224.411,290.089 222.864,289.857 C 223.392,288.964 223.919,288.071 224.447,287.178 C 225.595,285.234 224.283,286.009 219.666,290 C 211.199,297.318 202.178,302.519 192.786,305.498 C 186.305,307.554 182.468,308.017 168.786,308.397 C 158.044,308.695 148.926,309.555 142,310.922 C 136.225,312.062 130.319,312.995 128.876,312.997 C 127.433,312.999 124.376,313.662 122.085,314.470 C 119.794,315.278 118.163,315.546 118.461,315.064 C 119.627,313.177 138.710,307.597 148,306.427 C 151.025,306.046 153.961,305.373 154.525,304.931 C 155.089,304.489 157.677,303.874 165,303 C 167,302.667 169,302.333 171,302 Z" fill="#70BCEE" stroke="none" />
  <path id="13" d="M 125,178 C 133.913,172.008 140.438,167.958 145.250,165.134 C 148.167,163.423 151.083,161.711 154,160 C 153.958,160.839 153.917,161.678 153.875,162.517 C 153.782,164.389 154.141,164.883 155.276,164.447 C 156.116,164.125 157.030,162.993 157.308,161.931 C 158.368,157.877 171.584,160.499 174.425,165.327 C 175.318,166.844 174.914,167.649 172.038,170.077 C 170.134,171.685 169.121,173 171,173 C 162.833,178.248 154.667,183.496 146.500,188.744 C 146.417,192.120 146.333,195.496 146.250,198.872 C 146.167,202.248 146.083,205.624 146,209 C 145.648,208.715 145.296,208.429 144.944,208.144 C 143.637,207.084 140.381,191.338 140.824,188.216 C 141.016,186.862 142.713,184.944 144.990,183.506 C 150.066,180.302 150.188,179.975 147.554,176.671 C 145.433,174.011 145.068,173.906 141.400,174.909 C 133.894,176.962 131.372,179.253 130.686,184.643 C 130.346,187.314 129.569,191.229 128.961,193.342 C 127.973,196.774 127.703,197.014 125,194 C 125,188.667 125,183.333 125,178 Z" fill="#70BCEE" stroke="none" />
  <path id="10" d="M 142,81 C 151.863,77.543 164.746,75.714 179.500,75.678 C 197.083,75.635 208.574,77.628 224.750,83.530 C 228.833,85.020 232.917,86.510 237,88 C 237.194,88.346 237.388,88.691 237.582,89.037 C 237.902,89.607 235.526,89.296 232.301,88.346 C 228.689,87.281 225.682,86.928 224.469,87.425 C 222.793,88.112 223.142,88.455 226.812,89.721 C 234.497,92.372 230.434,92.275 216.197,89.468 C 211.556,88.553 206.914,87.638 202.273,86.723 C 200.811,87.390 199.349,88.056 197.887,88.723 C 187.882,93.284 185.089,93.080 177.699,87.250 C 174.529,84.749 171.434,84.503 161.192,85.937 C 150.949,87.371 138.376,88.004 139.992,87.005 C 140.769,86.525 143.676,85.815 146.452,85.428 C 148.135,85.193 149.817,84.958 151.500,84.723 C 150.333,84.317 149.167,83.911 148,83.505 C 145.056,82.480 143.631,82.570 139.036,84.072 C 130.436,86.882 131.653,85.622 142,81 Z" fill="#ABF5FD" stroke="none" />
  <path id="67" d="M 442,339 C 441.333,341 440.667,343 440,345 C 434.184,356.932 431.220,360.911 422.706,368.220 C 420.077,370.477 418.689,371.114 418.182,370.294 C 417.019,368.412 411.728,369.958 409.775,372.750 C 409.294,373.438 408.211,374 407.369,374 C 406.527,374 404.974,374.675 403.919,375.500 C 403.279,376 402.640,376.500 402,377 C 401.750,376.988 401.500,376.975 401.250,376.963 C 400.837,376.943 399.263,377.618 395,380 C 394.349,377.871 395.162,376.716 396.388,376.060 C 398.591,374.881 401.004,371.090 402.949,365.750 C 403.500,364.237 404.417,363 404.988,363 C 405.559,363 406.920,360.975 408.013,358.500 C 408.675,357 409.338,355.500 410,354 C 410.917,353.139 411.833,352.277 412.750,351.416 C 414.263,349.995 416.400,348.420 417.500,347.918 C 418.600,347.416 420.175,346.560 421,346.016 C 421.825,345.472 425.200,343.890 428.500,342.500 C 431.800,341.110 436.075,338.818 438,337.407 C 441.418,334.902 441.506,334.890 442,339 Z" fill="#AFAE72" stroke="none" />
  <path id="59" d="M 344,364 C 345.333,364 346.667,364 348,364 C 353,364.333 358,364.667 363,365 C 363,365.333 363,365.667 363,366 C 362.083,366.005 361.167,366.010 360.250,366.015 C 358.737,366.023 357.950,366.361 358.500,366.765 C 359.050,367.169 359.545,368.625 359.601,370 C 359.701,372.459 360.182,375.060 361.447,380 C 361.799,381.375 362.211,383.625 362.362,385 C 362.513,386.375 363.184,388.513 363.853,389.750 C 364.825,391.547 364.812,392.003 363.785,392.015 C 362.881,392.026 362.945,392.318 364,393 C 365.169,393.755 364.893,393.973 360,394 C 360,391.904 358.823,391.289 357.250,391.229 C 355.737,391.171 352.779,390.862 350.675,390.543 C 346.993,389.984 346.875,389.846 347.532,386.856 C 347.952,384.944 347.842,383.979 347.247,384.347 C 346.715,384.675 345.098,383.617 343.652,381.994 C 341.420,379.488 339.044,378.335 334.669,377.633 C 334.212,377.560 333.311,376.825 332.666,376 C 332.021,375.175 330.824,374.352 330.006,374.170 C 329.188,373.988 328.119,373.313 327.630,372.670 C 327.141,372.027 326.578,371.500 326.380,371.500 C 326.182,371.500 325.903,370.825 325.760,370 C 325.613,369.151 324.372,368.457 322.899,368.401 C 321.468,368.347 319.781,367.983 319.149,367.592 C 318.517,367.201 318,367.319 318,367.853 C 318,368.387 317.325,368.638 316.500,368.412 C 316,368.275 315.500,368.137 315,368 C 315,367.667 315,367.333 315,367 C 339.413,365.837 345.938,365.163 345.250,364.750 C 344.833,364.500 344.417,364.250 344,364 Z" fill="#768B95" stroke="none" />
  <path id="6" d="M 422,155 C 422.333,155 422.667,155 423,155 C 423.667,154.667 424.333,154.333 425,154 C 425.333,154 425.667,154 426,154 C 428.056,153.167 430.113,152.335 432.169,151.502 C 438.698,148.858 440.166,148.890 437.894,151.628 C 432.450,158.187 407.933,171.528 393.500,175.785 C 373.466,181.694 349.122,182.466 352.446,177.087 C 352.816,176.489 355.706,176 358.868,176 C 365.920,176 368.370,174.435 368.445,169.882 C 368.463,168.762 368.482,167.643 368.500,166.523 C 373.197,165.814 377.895,165.106 382.592,164.397 C 402.169,161.444 410.565,159.442 422,155 Z" fill="#1BCDAF" stroke="none" />
  <path id="45" d="M 366,245 C 364.293,245.946 361,241.521 361,238.282 C 361,237.106 358.133,236.942 343.750,237.296 C 334.263,237.530 325.150,238.080 323.500,238.521 C 318.141,239.952 322.353,236.486 328.990,234.004 C 334.666,231.881 335.856,231.812 356.959,232.393 C 364.306,232.595 371.653,232.798 379,233 C 397.572,236.943 406.032,240.573 418.443,249.924 C 426.467,255.970 429.457,258.964 433.249,264.750 C 434.833,267.167 436.416,269.583 438,272 C 437.667,272.667 437.333,273.333 437,274 C 425.345,259.271 420.354,254.379 411.642,249.145 C 400.048,242.180 382.581,237.065 370.250,237.022 C 363.278,236.998 361.808,238.580 368,239.443 C 369.333,239.629 370.667,239.814 372,240 C 371.333,240 370.667,240 370,240 C 369.112,243.142 368.216,243.929 367.437,243.777 C 366.658,243.625 366.017,243.837 366.011,244.250 C 366.007,244.500 366.004,244.750 366,245 Z" fill="#7EF8C6" stroke="none" />
  <path id="33" d="M 56,159 C 62.112,145.654 64.958,140.759 75.772,125 C 81.126,117.198 98.452,101.630 108.250,95.818 C 109.833,94.879 111.417,93.939 113,93 C 113,94.572 115.799,93.616 119.220,91.889 C 124.650,89.148 125.563,88.946 126.418,90.301 C 127.218,91.570 126.170,92.440 120.672,95.066 C 113.602,98.443 112.341,99.453 113.994,100.415 C 114.329,100.610 114.665,100.805 115,101 C 92.689,115.022 76.804,128.097 73.122,135.470 C 71.878,137.961 70.543,140 70.157,140 C 69.217,140 66.382,145.469 64.499,150.914 C 63.660,153.342 62.515,155.880 61.955,156.555 C 61.395,157.230 60.378,159.709 59.696,162.065 C 58.014,167.875 55.934,168.449 55.971,163.093 C 55.981,161.729 55.990,160.364 56,159 Z" fill="#9E9CF5" stroke="none" />
  <path id="5" d="M 160,197 C 161.333,196.333 162.667,195.667 164,195 C 163.671,196.038 163.341,197.077 163.012,198.115 C 161.837,201.819 162.499,203.380 164.720,202.137 C 165.775,201.546 167.848,201.930 170.904,203.283 C 173.761,204.548 177.392,205.269 180.500,205.188 C 193.767,204.843 195.499,205.002 196.746,206.687 C 197.800,208.112 198.069,207.420 199,196 C 200.606,198.003 200.805,202.773 200.502,209.250 C 200.335,212.833 200.167,216.417 200,220 C 198.999,220.407 197.999,220.813 196.998,221.220 C 194.314,222.311 193.839,222.215 192.510,220.318 C 190.653,217.667 182.770,214.896 179.147,215.621 C 177.616,215.927 173.722,215.253 170.245,214.082 C 166.845,212.937 163.149,212 160,212 C 160,207 160,202 160,197 Z" fill="#6FA3EE" stroke="none" />
  <path id="16" d="M 164,195 C 169.417,191.652 174.833,188.303 180.250,184.955 C 183.375,186.796 186.500,188.636 189.625,190.477 C 192.750,192.318 195.875,194.159 199,196 C 198.069,207.420 197.800,208.112 196.746,206.687 C 195.499,205.002 193.767,204.843 180.500,205.188 C 177.392,205.269 173.761,204.548 170.904,203.283 C 167.848,201.930 165.775,201.546 164.720,202.137 C 162.499,203.380 161.837,201.819 163.012,198.115 C 163.341,197.077 163.671,196.038 164,195 Z" fill="#59DCEF" stroke="none" />
  <path id="7" d="M 316,247 C 331.153,237.929 331.172,237.931 343.995,250.769 C 349.217,255.997 354.504,260.939 355.745,261.752 C 360.982,265.184 357.403,267.904 348.351,267.373 C 346.234,267.249 344.117,267.124 342,267 C 340.191,267 338.382,267 336.573,267 C 331.661,267 330.878,266.685 328.323,263.681 C 326.770,261.856 324.038,259.350 322.250,258.113 C 320.462,256.876 319,255.237 319,254.471 C 319,253.705 318.053,252.195 316.894,251.116 C 315.736,250.037 315.060,248.669 316,247 Z" fill="#28BDB3" stroke="none" />
  <path id="19" d="M 200,220 C 196.694,223.981 183.017,232.947 180.195,232.983 C 179.477,232.992 176.036,231.312 172.548,229.250 C 169.060,227.188 164.809,224.734 163.103,223.797 C 160.268,222.240 160,221.659 160,217.047 C 160,215.365 160,213.682 160,212 C 163.149,212 166.845,212.937 170.245,214.082 C 173.722,215.253 177.616,215.927 179.147,215.621 C 182.770,214.896 190.653,217.667 192.510,220.318 C 193.839,222.215 194.314,222.311 196.998,221.220 C 197.999,220.813 198.999,220.407 200,220 Z" fill="#5E70DF" stroke="none" />
  <path id="19" d="M 267.391,151.090 C 268.156,150.455 269.034,148.713 269.342,147.218 C 271.450,136.987 273.859,130.500 275.551,130.500 C 277.308,130.500 289.004,146.080 288.996,148.409 C 288.989,150.486 279.823,157 276.909,157 C 275.361,157 272.899,157.544 271.438,158.210 C 269.142,159.256 268.592,159.163 267.390,157.519 C 265.616,155.093 265.617,152.563 267.391,151.090 Z" fill="#5E70DF" stroke="none" />
  <path id="57" d="M 301,301 C 307.141,301 310.179,301.921 312.285,303.250 C 314.245,304.487 318.747,307.300 322.288,309.500 C 326.416,312.064 328.549,313.998 328.233,314.889 C 327.923,315.763 328.176,316.009 328.914,315.553 C 330.952,314.294 335,317.775 335,320.786 C 335,322.293 335.225,324.758 335.500,326.263 C 335.667,327.175 335.833,328.088 336,329 C 329,329 327.796,328.539 327.401,327.250 C 327.106,326.288 325.995,323.576 324.933,321.225 C 323.122,317.217 322.208,316.562 310.274,310.725 C 297.640,304.546 294.850,302.268 298.895,301.434 C 299.597,301.289 300.298,301.145 301,301 Z" fill="#5B8FBB" stroke="none" />
  <path id="68" d="M 451,312 C 451,318 451,324 451,330 C 448.547,339.688 447.161,344.075 446.337,346 C 442.662,354.589 438.530,362.243 437.319,362.708 C 436.593,362.986 436,364.013 436,364.990 C 436,367.307 421.788,381.923 416,385.558 C 406.569,391.481 397.939,394.694 398.027,392.250 C 398.042,391.837 400.992,390.187 404.583,388.583 C 408.174,386.979 411.199,385.603 411.306,385.527 C 417.239,381.297 428.132,371.476 431.563,367.264 C 437.110,360.455 439.734,355.499 442.161,347.250 C 442.774,345.167 443.387,343.083 444,341 C 444,340.333 444,339.667 444,339 C 444.500,337.379 445,335.758 445.500,334.137 C 446.325,331.463 447.020,327.525 447.044,325.387 C 447.068,323.249 447.968,319.362 451,312 Z" fill="#E3C883" stroke="none" />
  <path id="60" d="M 369,356 C 377.314,355.359 382.039,354.233 384.864,353.086 C 386.576,352.391 388.288,351.695 390,351 C 390.667,351 391.333,351 392,351 C 390.083,351.967 388.167,352.935 386.250,353.902 C 383.087,355.498 378.700,357.078 376.500,357.414 C 365.953,359.023 361.197,360.527 362,362 C 357.333,362 352.667,362 348,362 C 342.567,362.388 340.992,362.837 340.995,363.250 C 340.997,363.500 340.998,363.750 341,364 C 337.024,362.450 334.147,362 332.042,362 C 329.342,362 328.019,361.493 327.553,360.278 C 326.972,358.764 327.928,358.462 335.446,357.778 C 338.297,357.519 341.149,357.259 344,357 C 352.333,356.667 360.667,356.333 369,356 Z" fill="#D1D7B3" stroke="none" />
  <path id="34" d="M 85,303 C 79.541,298.013 76.391,293.963 74.478,290.783 C 73.319,288.855 72.159,286.928 71,285 C 72.033,284.225 70.731,281.638 68.773,278.750 C 64.290,272.138 62.436,268.402 61.514,264.125 C 60.466,259.263 62.417,260.903 65.913,267.823 C 67.490,270.945 69.505,274.062 70.390,274.750 C 70.927,275.167 71.463,275.583 72,276 C 76.951,284.138 80.551,289.379 83.194,292.899 C 85.837,296.419 88,299.868 88,300.564 C 88,301.260 90.280,303.504 93.066,305.549 C 96.504,308.072 97.805,309.595 97.114,310.286 C 96.423,310.977 94.313,309.969 90.548,307.152 C 88.699,305.768 86.849,304.384 85,303 Z" fill="#453AA0" stroke="none" />
  <path id="17" d="M 380,232 C 385.645,232 400.119,236.012 406.938,239.468 C 413.390,242.737 426.787,252.914 431.485,258.115 C 433.570,260.423 436.564,264.492 438.138,267.156 C 439.092,268.771 440.046,270.385 441,272 C 440,272 439,272 438,272 C 436.416,269.583 434.833,267.167 433.249,264.750 C 429.457,258.964 426.467,255.970 418.443,249.924 C 406.032,240.573 397.572,236.943 379,233 C 379.333,232.667 379.667,232.333 380,232 Z" fill="#23D2A6" stroke="none" />
  <path id="74" d="M 262,250 C 261.667,250.333 261.333,250.667 261,251 C 259.333,255 257.667,259 256,263 C 253.667,267.667 251.333,272.333 249,277 C 248.333,277.333 247.667,277.667 247,278 C 246.333,278 245.667,278 245,278 C 245,277 245,276 245,275 C 249.583,266.862 253.489,258.970 256.637,252.211 C 260.218,244.521 262.856,240.030 263.686,240.211 C 264.415,240.370 265.009,240.837 265.006,241.250 C 265.004,241.500 265.002,241.750 265,242 C 265,242.333 265,242.667 265,243 C 264.667,243.333 264.333,243.667 264,244 C 263.667,245.333 263.333,246.667 263,248 C 262.667,248.333 262.333,248.667 262,249 C 262,249.333 262,249.667 262,250 Z" fill="#73E3EB" stroke="none" />
  <path id="49" d="M 161.500,253.544 C 164.800,253.953 168.400,254.854 169.500,255.546 C 170.600,256.238 173.075,257.125 175,257.517 C 176.925,257.910 178.950,258.564 179.500,258.971 C 180.050,259.378 181.546,259.967 182.824,260.281 C 184.102,260.595 185.062,260.938 184.956,261.044 C 184.850,261.150 185.380,261.636 186.132,262.125 C 187.216,262.830 186.981,263.425 185,264.991 C 183.625,266.078 181.776,267.209 180.890,267.506 C 179.323,268.031 170.758,263.299 160.500,256.241 C 158.833,255.094 157.167,253.947 155.500,252.800 C 157.500,253.048 159.500,253.296 161.500,253.544 Z" fill="#4F35B8" stroke="none" />
  <path id="40" d="M 259,101 C 263,104.333 267,107.667 271,111 C 271.144,112.646 271.287,114.291 271.431,115.937 C 268.859,114.614 266.288,113.292 263.716,111.969 C 261.144,110.646 258.572,109.323 256,108 C 256.388,106.179 254.250,104.187 251.500,102.398 C 242.922,96.819 242.375,96.302 243.647,94.990 C 244.524,94.085 246.169,94.709 250.647,97.650 C 253.866,99.764 257.062,101.383 257.750,101.247 C 258.167,101.165 258.583,101.082 259,101 Z" fill="#93ACE8" stroke="none" />
  <path id="56" d="M 277,227 C 281.295,219.922 291.272,210.328 296.892,207.870 C 299.307,206.814 301.430,206.096 301.610,206.276 C 302.551,207.217 297.803,215.341 292.750,221.436 C 289.587,225.251 287,228.063 287,227.686 C 287,227.457 287,227.229 287,227 C 288.003,223.478 287.481,222.754 285.373,221.952 C 282.897,221.011 282.464,221.174 281.237,223.517 C 280.177,225.540 280.134,226.456 281.045,227.554 C 281.693,228.335 281.924,229.755 281.558,230.709 C 281.003,232.155 280.745,232.207 280.012,231.020 C 279.528,230.237 279.355,229.234 279.629,228.791 C 279.903,228.348 279.423,227.764 278.563,227.493 C 278.042,227.329 277.521,227.164 277,227 Z" fill="#2687A6" stroke="none" />
  <path id="48" d="M 389,180 C 403.337,175.184 410.763,172.484 414.750,170.893 C 417.167,169.929 419.583,168.964 422,168 C 419.691,172.737 400.274,186 395.647,186 C 394.859,186 393.991,185.438 393.719,184.750 C 393.447,184.062 392.257,183.050 391.073,182.500 C 389.889,181.950 388.938,181.163 388.960,180.750 C 388.973,180.500 388.987,180.250 389,180 Z" fill="#06B49F" stroke="none" />
  <path id="72" d="M 228,395 C 227.667,395 227.333,395 227,395 C 226.333,396.667 225.667,398.333 225,400 C 218.498,401.041 218,400.841 218,399.156 C 218,396.010 232.158,378.564 235.048,378.148 C 237.492,377.797 237.494,377.806 236.248,382.398 C 235.832,383.932 235.416,385.466 235,387 C 232.667,389.667 230.333,392.333 228,395 Z" fill="#B35DF4" stroke="none" />
  <path id="73" d="M 247,396 C 278.118,396.117 282.597,396.454 283.638,397.495 C 286.920,400.777 285.254,401.041 262.999,400.769 C 250.899,400.621 240.999,400.163 240.999,399.750 C 240.999,399.500 241,399.250 241,399 C 243,398 245,397 247,396 Z" fill="#B465E9" stroke="none" />
  <path id="46" d="M 334,270 C 348.515,269.452 351.363,269.732 352.100,270.620 C 352.677,271.315 354.468,272.023 356.081,272.192 C 357.694,272.361 359.011,272.837 359.007,273.250 C 359.005,273.500 359.002,273.750 359,274 C 358.333,274.333 357.667,274.667 357,275 C 331.812,274.001 323.461,273.326 322.190,272.857 C 318.224,271.392 320.840,270 327.559,270 C 329.706,270 331.853,270 334,270 Z" fill="#55CCC8" stroke="none" />
  <path id="62" d="M 392,351 C 396.263,348.490 398.288,346.690 399.250,345.381 C 399.833,344.587 400.417,343.794 401,343 C 401.417,343.528 401.833,344.057 402.250,344.585 C 403.312,345.932 402.748,346.841 398.500,350.635 C 395.750,353.091 390.575,356.515 387,358.245 C 381.403,360.953 379.215,361.432 362,362 C 361.197,360.527 365.953,359.023 376.500,357.414 C 378.700,357.078 383.087,355.498 386.250,353.902 C 388.167,352.935 390.083,351.967 392,351 Z" fill="#CFDEA8" stroke="none" />
  <path id="58" d="M 349.684,301.650 C 350.675,300.659 360.544,300.876 363.374,301.952 C 366.536,303.154 374.423,312.978 373.204,314.196 C 371.817,315.583 362.128,311.519 355.216,306.652 C 351.816,304.258 349.327,302.007 349.684,301.650 Z" fill="#3FEBB7" stroke="none" />
  <path id="76" d="M 338,402 C 331,402 324,402 317,402 C 317.654,398.728 319.204,397.907 323.128,397.065 C 328.759,395.856 337.013,395.967 337.005,397.250 C 337.003,397.500 337.002,397.750 337,398 C 337.333,398.667 337.667,399.333 338,400 C 338,400.667 338,401.333 338,402 Z" fill="#C3AABD" stroke="none" />
  <path id="8" d="M 192,298 C 203.238,292.531 208.413,289.381 210.750,287.472 C 212.167,286.315 213.583,285.157 215,284 C 215,284.667 215,285.333 215,286 C 213.250,287.466 211.500,288.933 209.750,290.399 C 206.863,292.818 203.038,295.518 198,298 C 196.766,298.410 195.533,298.819 194.299,299.229 C 193.065,299.639 191.832,300.049 190.598,300.459 C 191.065,299.639 191.533,298.820 192,298 Z" fill="#00CCC0" stroke="none" />
  <path id="42" d="M 417,153 C 416.667,153.333 416.333,153.667 416,154 C 415,154.333 414,154.667 413,155 C 406.667,156.333 400.333,157.667 394,159 C 392.520,159 391.039,159 389.559,159 C 383.497,159 382.957,157.408 388.775,156.688 C 391.374,156.366 398.788,155.405 417,153 Z" fill="#61CEA9" stroke="none" />
  <path id="51" d="M 217,288 C 214.333,290.333 211.667,292.667 209,295 C 200.484,299.314 198.484,299.860 198.296,299.137 C 198.197,298.758 198.099,298.379 198,298 C 203.038,295.518 206.863,292.818 209.750,290.399 C 211.500,288.933 213.250,287.466 215,286 C 215.667,286.667 216.333,287.333 217,288 Z" fill="#80DFF6" stroke="none" />
  <path id="79" d="M 393,384 C 393,383.667 393,383.333 393,383 C 393,382.667 393,382.333 393,382 C 393.667,381.333 394.333,380.667 395,380 C 399.263,377.618 400.837,376.943 401.250,376.963 C 401.500,376.975 401.750,376.988 402,377 C 399.441,383.975 398.091,386 397.349,386 C 396.899,386 396.450,386 396,386 C 395,385.333 394,384.667 393,384 Z" fill="#A4A175" stroke="none" />
  <path id="26" d="M 266,357 C 300.333,356.667 334.667,356.333 369,356 C 360.667,356.333 352.333,356.667 344,357 C 318,357 292,357 266,357 Z" fill="#004888" stroke="none" />
  <path id="24" d="M 158,303 C 157.333,302.333 156.667,301.667 156,301 C 156.667,300.333 157.333,299.667 158,299 C 162.333,300 166.667,301 171,302 C 169,302.333 167,302.667 165,303 C 162.667,303 160.333,303 158,303 Z" fill="#402E79" stroke="none" />
  <path id="26" d="M 213,401 C 213.333,401 213.667,401 214,401 C 248.333,401.333 282.667,401.667 317,402 C 324,402 331,402 338,402 C 344.333,402 350.667,402 357,402 C 360.667,402 364.333,402 368,402 C 247.875,402.388 213,402.163 213,401.750 C 213,401.500 213,401.250 213,401 Z" fill="#004888" stroke="none" />
  <path id="17" d="M 453,312 C 452.971,326.725 452.746,331 452.481,331 C 452.321,331 452.160,331 452,331 C 451.667,330.667 451.333,330.333 451,330 C 451,324 451,318 451,312 C 451.667,312 452.333,312 453,312 Z" fill="#23D2A6" stroke="none" />
  <path id="17" d="M 390,351 C 393.333,348 396.667,345 400,342 C 400.333,342.333 400.667,342.667 401,343 C 400.417,343.794 399.833,344.587 399.250,345.381 C 398.288,346.690 396.263,348.490 392,351 C 391.333,351 390.667,351 390,351 Z" fill="#23D2A6" stroke="none" />
  <path id="38" d="M 357,402 C 350.667,402 344.333,402 338,402 C 338,401.333 338,400.667 338,400 C 344.333,400.667 350.667,401.333 357,402 Z" fill="#6375AB" stroke="none" />
  <path id="41" d="M 276.250,121.013 C 278.306,121.035 288.204,133.756 286.827,134.607 C 286.116,135.046 285.008,134.369 284.069,132.921 C 283.206,131.590 280.812,128.650 278.750,126.388 C 274.738,121.989 274.274,120.992 276.250,121.013 Z" fill="#7B95EE" stroke="none" />
  <path id="66" d="M 396,387 C 388.666,389.388 388.577,389.364 390.232,387.668 C 391.185,386.692 391.860,385.477 391.732,384.969 C 391.604,384.461 391.837,384.035 392.250,384.023 C 392.500,384.015 392.750,384.008 393,384 C 394,384.667 395,385.333 396,386 C 396,386.333 396,386.667 396,387 Z" fill="#9EA075" stroke="none" />
  <path id="8" d="M 217,288 C 217.667,288 218.333,288 219,288 C 217.838,289.167 216.677,290.333 215.515,291.500 C 213.598,293.425 211.348,295 209,295 C 211.667,292.667 214.333,290.333 217,288 Z" fill="#00CCC0" stroke="none" />
  <path id="29" d="M 396,202 C 396,200.333 396,198.667 396,197 C 397,196.333 398,195.667 399,195 C 399.250,195.003 399.500,195.007 399.750,195.010 C 400.163,195.015 399.487,196.590 396,202 Z" fill="#0F2541" stroke="none" />
  <path id="17" d="M 442,339 C 442.667,339 443.333,339 444,339 C 444,339.667 444,340.333 444,341 C 442.667,342.333 441.333,343.667 440,345 C 440.667,343 441.333,341 442,339 Z" fill="#23D2A6" stroke="none" />
  <path id="17" d="M 344,364 C 343,364 342,364 341,364 C 340.998,363.750 340.997,363.500 340.995,363.250 C 340.992,362.837 342.567,362.388 348,362 C 348,362.667 348,363.333 348,364 C 346.667,364 345.333,364 344,364 Z" fill="#23D2A6" stroke="none" />
  <path id="16" d="M 240,264 C 242.481,261.923 243.694,261.858 245.697,262.562 C 247.239,263.104 248.387,264.100 248.250,264.774 C 248.167,265.183 248.083,265.591 248,266 C 245.398,263.688 243.613,263.242 242.325,263.512 C 241.550,263.675 240.775,263.837 240,264 Z" fill="#59DCEF" stroke="none" />
  <path id="37" d="M 169.331,113.426 C 171.759,112.494 178.318,113.416 178.756,114.750 C 179.048,115.639 177.714,116 174.142,116 C 169.210,116 166.459,114.528 169.331,113.426 Z" fill="#504DDE" stroke="none" />
  <path id="42" d="M 472,114 C 478.731,106.634 481.070,106.135 476.590,113.020 C 475.727,114.347 474.863,115.673 474,117 C 474.017,116.750 474.033,116.500 474.050,116.250 C 474.078,115.838 473.628,115.162 472,114 Z" fill="#61CEA9" stroke="none" />
  <path id="78" d="M 371,243 C 370.667,242 370.333,241 370,240 C 370.667,240 371.333,240 372,240 C 372,241 372,242 372,243 C 371.667,243 371.333,243 371,243 Z" fill="#1ED8B1" stroke="none" />
  <path id="75" d="M 267,239 C 264.675,239 264,238.292 264,237.427 C 264,236.549 264.666,235.997 265.506,236.177 C 266.334,236.355 267.009,236.837 267.006,237.250 C 267.004,237.500 267.002,237.750 267,238 C 267,238.333 267,238.667 267,239 Z" fill="#66E8E4" stroke="none" />
  <path id="71" d="M 416,154 C 416,156.451 415.334,157.003 414.494,156.823 C 413.666,156.645 412.991,156.163 412.994,155.750 C 412.996,155.500 412.998,155.250 413,155 C 414,154.667 415,154.333 416,154 Z" fill="#89E0D7" stroke="none" />
  <path id="80" d="M 407,304 C 406.667,303 406.333,302 406,301 C 408.451,301 409.003,301.666 408.823,302.506 C 408.645,303.334 408.163,304.009 407.750,304.006 C 407.500,304.004 407.250,304.002 407,304 Z" fill="#86C1B0" stroke="none" />
  <path id="8" d="M 245,278 C 245.667,278 246.333,278 247,278 C 246.457,278.417 245.914,278.833 245.371,279.250 C 244.828,279.667 244.286,280.083 243.743,280.500 C 244.162,279.667 244.581,278.833 245,278 Z" fill="#00CCC0" stroke="none" />
  <path id="17" d="M 366,366 C 365,366 364,366 363,366 C 363,365.667 363,365.333 363,365 C 364,365.333 365,365.667 366,366 Z" fill="#23D2A6" stroke="none" />
  <path id="6" d="M 376.500,274 C 376.775,274 377,274.225 377,274.500 C 377,274.775 376.775,275 376.500,275 C 376.225,275 376,274.775 376,274.500 C 376,274.225 376.225,274 376.500,274 Z" fill="#1BCDAF" stroke="none" />
  <path id="42" d="M 422.500,151 C 422.775,151 423,151.225 423,151.500 C 423,151.775 422.775,152 422.500,152 C 422.225,152 422,151.775 422,151.500 C 422,151.225 422.225,151 422.500,151 Z" fill="#61CEA9" stroke="none" />
  <path id="18" d="M 254.500,303 C 254.775,303 255,303.225 255,303.500 C 255,303.775 254.775,304 254.500,304 C 254.225,304 254,303.775 254,303.500 C 254,303.225 254.225,303 254.500,303 Z" fill="#19A0A3" stroke="none" />
</svg>
